<svg xmlns="http://www.w3.org/2000/svg" version="1.1" xmlns:xlink="http://www.w3.org/1999/xlink" preserveAspectRatio="none" x="0px" y="0px" width="2422px" height="498px" viewBox="0 0 2422 498">
<defs/>

<g id="_____2">
<g id="_____1" transform="matrix( 6.727783203125, 0, 0, 6.7986297607421875, 1211,248.85) ">
<g>
<g>
<g>
<path fill="#F03024" stroke="none" d=" M -132.15 36.65 L -132.15 26.65 -180 26.65 -180 36.65 -132.15 36.65 M -45.85 -23.5 Q -56.1 -22.1 -59.85 -15.15 -64.5 -7 -62.05 0.8 -57.8 13.35 -45.85 13.75 L -45.85 26.7 -37 26.7 -37 13.75 Q -25.1 13.3 -20.85 0.8 -18.4 -7 -23.05 -15.15 -26.8 -22.1 -37 -23.5 L -37 -36.35 -45.85 -36.35 -45.85 -23.5 M -43.85 -15.2 Q -44.9 -15.05 -45.85 -14.8 L -45.85 5.25 Q -44.9 5.45 -43.85 5.5 -44.9 5.45 -45.85 5.25 -50.85 4.15 -52.85 -1.7 -54.2 -6.05 -51.6 -10.55 -49.95 -13.7 -45.85 -14.8 -44.9 -15.05 -43.85 -15.2 M -38.95 -15.2 Q -37.9 -15.05 -37 -14.8 -32.9 -13.7 -31.2 -10.55 -28.6 -6.05 -29.95 -1.7 -32 4.15 -37 5.25 -37.9 5.45 -38.95 5.5 -37.9 5.45 -37 5.25 L -37 -14.8 Q -37.9 -15.05 -38.95 -15.2 M -85.6 -22.15 L -94.6 -22.15 -94.6 12.75 -75.65 12.75 Q -68.5 11.8 -66.65 5.55 L -66.55 -3.65 Q -68 -11.1 -75.8 -11.9 L -85.6 -11.9 -85.6 -22.15 M -85.7 -3.95 L -78.1 -3.95 Q -72.5 0 -78.1 4.3 L -85.7 4.3 -85.7 -3.95 M -118.7 -14.3 L -110.4 -14.3 -110.4 12.8 -100.95 12.8 -100.95 -22.7 -127.3 -22.7 -127.3 1.45 Q -128.55 4.65 -132.1 3.8 L -132.1 12.7 -126.4 12.05 Q -121.3 10.8 -120.1 6.45 -118.95 2.1 -119.3 1.3 L -118.7 -14.3 M -151.55 -35.45 Q -155.65 -37.6 -160.15 -35.7 -165 -29.25 -179.05 12.15 L -169.45 12.15 -165.75 3.05 -147.3 3.05 -144 12.75 -134 12.75 Q -140.55 -11.6 -151.55 -35.45 M -156.55 -25.15 L -150.4 -6.4 -163 -6.4 -156.55 -25.15 M 155.4 -22.05 L 146.5 -22.05 146.5 12.4 155.2 12.4 155.2 -1.55 168.15 12.15 180 12.15 163.95 -6.1 178.4 -22 167.1 -22 155.4 -9.05 155.4 -22.05 M 118.5 -22.05 L 109.6 -22.05 109.6 12.4 118.3 12.4 118.3 -1.05 131.2 -1.05 131.2 12.4 139.9 12.4 139.9 -22.05 131 -22.05 131 -9.55 130.85 -9.55 118.65 -9.55 118.5 -22.05 M 78.4 -9.2 Q 72.5 -6.95 72.25 -1.55 70.8 9.75 79.65 12.05 87.55 15.3 93.95 9 97.95 14.25 104.75 12.35 L 104.75 4.8 101.9 2.7 101.9 -14 Q 100.75 -20.45 92.8 -22.95 87.15 -24.7 82.05 -22.95 73.8 -19.6 72.95 -12.55 L 82.15 -12.55 Q 82.55 -14.75 84.55 -14.9 L 90.3 -14.9 Q 92.95 -13.5 92.45 -10.35 84.2 -11.1 78.4 -9.2 M 83.3 -2.2 L 92.95 -2.2 92.95 1.6 Q 91.65 3.9 90 4.65 86.35 6.7 83.3 4.65 79.25 0.85 83.3 -2.2 M 42.25 -26.9 L 65.45 -26.9 65.45 -36.35 31.9 -36.35 31.9 12.35 56.65 12.35 Q 66.05 10.55 67.7 2.65 L 67.6 -8.15 Q 66.5 -14.75 57.15 -16.7 50.2 -17.65 42.25 -17.6 L 42.25 -26.9 M 41.8 -8.7 L 53.5 -8.75 Q 63.95 -2.45 53.5 3.45 L 41.8 3.45 41.8 -8.7 M 13.1 -14 Q 11.95 -20.45 4 -22.95 -1.65 -24.7 -6.75 -22.95 -15 -19.6 -15.85 -12.55 L -6.65 -12.55 Q -6.25 -14.75 -4.25 -14.9 L 1.5 -14.9 Q 4.15 -13.5 3.65 -10.35 -4.6 -11.1 -10.4 -9.2 -16.3 -6.95 -16.55 -1.55 -18 9.75 -9.15 12.05 -1.25 15.3 5.15 9 9.15 14.25 15.95 12.35 L 15.95 4.8 13.1 2.7 13.1 -14 M 4.15 1.6 Q 2.85 3.9 1.2 4.65 -2.45 6.7 -5.5 4.65 -9.55 0.85 -5.5 -2.2 L 4.15 -2.2 4.15 1.6 Z"/>
</g>
</g>

<g>
<path stroke="#F03024" stroke-width="1" stroke-linejoin="round" stroke-linecap="round" fill="none" d=" M -15.85 -12.55 L -6.65 -12.55 Q -6.25 -14.75 -4.25 -14.9 L 1.5 -14.9 Q 4.15 -13.5 3.65 -10.35 -4.6 -11.1 -10.4 -9.2 -16.3 -6.95 -16.55 -1.55 -18 9.75 -9.15 12.05 -1.25 15.3 5.15 9 9.15 14.25 15.95 12.35 L 15.95 4.8 13.1 2.7 13.1 -14 Q 11.95 -20.45 4 -22.95 -1.65 -24.7 -6.75 -22.95 -15 -19.6 -15.85 -12.55 Z M 31.9 12.35 L 31.9 -36.35 65.45 -36.35 65.45 -26.9 42.25 -26.9 42.25 -17.6 Q 50.2 -17.65 57.15 -16.7 66.5 -14.75 67.6 -8.15 L 67.7 2.65 Q 66.05 10.55 56.65 12.35 L 31.9 12.35 Z M 41.8 -8.7 L 41.8 3.45 53.5 3.45 Q 63.95 -2.45 53.5 -8.75 L 41.8 -8.7 Z M 72.95 -12.55 L 82.15 -12.55 Q 82.55 -14.75 84.55 -14.9 L 90.3 -14.9 Q 92.95 -13.5 92.45 -10.35 84.2 -11.1 78.4 -9.2 72.5 -6.95 72.25 -1.55 70.8 9.75 79.65 12.05 87.55 15.3 93.95 9 97.95 14.25 104.75 12.35 L 104.75 4.8 101.9 2.7 101.9 -14 Q 100.75 -20.45 92.8 -22.95 87.15 -24.7 82.05 -22.95 73.8 -19.6 72.95 -12.55 Z M 92.95 -2.2 L 83.3 -2.2 Q 79.25 0.85 83.3 4.65 86.35 6.7 90 4.65 91.65 3.9 92.95 1.6 L 92.95 -2.2 Z M 130.85 -9.55 L 118.65 -9.55 118.5 -22.05 109.6 -22.05 109.6 12.4 118.3 12.4 118.3 -1.05 131.2 -1.05 131.2 12.4 139.9 12.4 139.9 -22.05 131 -22.05 131 -9.55 130.85 -9.55 130.85 -22.05 131 -22.05 M 155.2 -1.55 L 155.2 12.4 146.5 12.4 146.5 -22.05 155.4 -22.05 155.4 -9.05 167.1 -22 178.4 -22 163.95 -6.1 180 12.15 168.15 12.15 155.2 -1.55 Z M 4.15 -2.2 L -5.5 -2.2 Q -9.55 0.85 -5.5 4.65 -2.45 6.7 1.2 4.65 2.85 3.9 4.15 1.6 L 4.15 -2.2 Z M -179.05 12.15 Q -165 -29.25 -160.15 -35.7 -155.65 -37.6 -151.55 -35.45 -140.55 -11.6 -134 12.75 L -144 12.75 -147.3 3.05 -165.75 3.05 -169.45 12.15 -179.05 12.15 Z M -163 -6.4 L -156.55 -25.15 -150.4 -6.4 -163 -6.4 Z M -132.1 3.8 L -132.1 12.7 -126.4 12.05 Q -121.3 10.8 -120.1 6.45 -118.95 2.1 -119.3 1.3 L -118.7 -14.3 -110.4 -14.3 -110.4 12.8 -100.95 12.8 -100.95 -22.7 -127.3 -22.7 -127.3 1.45 Q -128.55 4.65 -132.1 3.8 Z M -94.6 -22.15 L -85.6 -22.15 -85.6 -11.9 -75.8 -11.9 Q -68 -11.1 -66.55 -3.65 L -66.65 5.55 Q -68.5 11.8 -75.65 12.75 L -94.6 12.75 -94.6 -22.15 Z M -45.85 -23.5 Q -56.1 -22.1 -59.85 -15.15 -64.5 -7 -62.05 0.8 -57.8 13.35 -45.85 13.75 M -37 13.75 Q -25.1 13.3 -20.85 0.8 -18.4 -7 -23.05 -15.15 -26.8 -22.1 -37 -23.5 M -43.85 -15.2 Q -44.9 -15.05 -45.85 -14.8 M -45.85 5.25 Q -44.9 5.45 -43.85 5.5 M -45.85 -14.8 Q -49.95 -13.7 -51.6 -10.55 -54.2 -6.05 -52.85 -1.7 -50.85 4.15 -45.85 5.25 M -38.95 -15.2 Q -37.9 -15.05 -37 -14.8 -32.9 -13.7 -31.2 -10.55 -28.6 -6.05 -29.95 -1.7 -32 4.15 -37 5.25 -37.9 5.45 -38.95 5.5 M -85.7 -3.95 L -85.7 4.3 -78.1 4.3 Q -72.5 0 -78.1 -3.95 L -85.7 -3.95 Z"/>
</g>
</g>
</g>
</g>
</svg>