<?xml version="1.0" encoding="utf-8"?>
<!-- Generator: Adobe Illustrator 24.0.2, SVG Export Plug-In . SVG Version: 6.00 Build 0)  -->
<!DOCTYPE svg PUBLIC "-//W3C//DTD SVG 1.1//EN" "http://www.w3.org/Graphics/SVG/1.1/DTD/svg11.dtd" [
	<!ENTITY ns_extend "http://ns.adobe.com/Extensibility/1.0/">
	<!ENTITY ns_ai "http://ns.adobe.com/AdobeIllustrator/10.0/">
	<!ENTITY ns_graphs "http://ns.adobe.com/Graphs/1.0/">
	<!ENTITY ns_vars "http://ns.adobe.com/Variables/1.0/">
	<!ENTITY ns_imrep "http://ns.adobe.com/ImageReplacement/1.0/">
	<!ENTITY ns_sfw "http://ns.adobe.com/SaveForWeb/1.0/">
	<!ENTITY ns_custom "http://ns.adobe.com/GenericCustomNamespace/1.0/">
	<!ENTITY ns_adobe_xpath "http://ns.adobe.com/XPath/1.0/">
]>
<svg version="1.1" id="Слой_1" xmlns:x="&ns_extend;" xmlns:i="&ns_ai;" xmlns:graph="&ns_graphs;"
	 xmlns="http://www.w3.org/2000/svg" xmlns:xlink="http://www.w3.org/1999/xlink" x="0px" y="0px" viewBox="0 0 371.6 80.5"
	 style="enable-background:new 0 0 371.6 80.5;" xml:space="preserve">
<style type="text/css">
	.st0{fill:#00BEF0;}
</style>
<metadata>
	<sfw  xmlns="&ns_sfw;">
		<slices></slices>
		<sliceSourceBounds  bottomLeftOrigin="true" height="43.4" width="279.3" x="-124.9" y="-303.3"></sliceSourceBounds>
	</sfw>
</metadata>
<g>
	<rect x="254.6" y="18.4" width="1" height="43.3"/>
</g>
<g>
	<path d="M272.4,45h-3.4V35h5.9v1h-4.7v3.2h2.2c2,0,3.3,0.8,3.3,2.8v0.1C275.6,44,274.4,45,272.4,45z M272.3,44.1
		c1.5,0,2.1-0.7,2.1-1.9v-0.1c0-1.2-0.7-1.9-2.2-1.9h-2.1v3.9H272.3z"/>
	<path d="M276.8,43c0-1.7,1.8-2.3,3.7-2.3h1.1v-0.5c0-1.2-0.4-1.7-1.6-1.7c-1,0-1.6,0.4-1.7,1.3h-1.2c0.2-1.7,1.5-2.3,2.9-2.3
		c1.4,0,2.7,0.6,2.7,2.6V45h-1.2v-0.9c-0.5,0.7-1.2,1.1-2.3,1.1C277.8,45.2,276.8,44.5,276.8,43z M281.5,42.5v-0.9h-1
		c-1.5,0-2.5,0.4-2.5,1.4c0,0.8,0.4,1.2,1.4,1.2C280.5,44.2,281.5,43.6,281.5,42.5z"/>
	<path d="M289.4,41.8h-3.6V45h-1.2v-7.3h1.2v3.1h3.6v-3.1h1.2V45h-1.2V41.8z"/>
	<path d="M293.7,41.3V45h-1.2v-7.3h1.2v3.4l3-3.4h1.4l-3.1,3.4l3.4,3.9h-1.4L293.7,41.3z"/>
</g>
<g>
	<g>
		<path class="st0" d="M40.7,18.5c-12,0-21.7,9.7-21.7,21.7c0,12,9.7,21.7,21.7,21.7c12,0,21.7-9.7,21.7-21.7
			C62.4,28.2,52.7,18.5,40.7,18.5z M37.7,49.4l-1.6,4.7c-6-2-10-7.7-10-14.1c0-6.4,4-12,10.1-14.1l1.6,4.7c-4,1.3-6.6,5.1-6.6,9.3
			C31,44.3,33.7,48.1,37.7,49.4z M45.1,54.2l-1.5-4.8c4.1-1.3,6.8-5.1,6.8-9.4c0-4.3-2.7-8-6.7-9.3l1.6-4.8
			c6.1,2,10.2,7.7,10.2,14.1C55.5,46.6,51.3,52.3,45.1,54.2z"/>
	</g>
	<path d="M239.4,44.1l2.4,2.9c-2.5,2.6-5.6,3.3-8.1,3.3c-2.4,0-4.1-0.4-5.6-1.1c-3.2-1.6-4.8-4.8-4.8-8.7c0-5.9,4-10.3,9.9-10.3
		c6.6,0,9.8,4.9,9.3,11.3l-15,0c0.1,1.6,1,3.1,2.3,3.9c1.1,0.7,2.4,1,4.1,1C235.8,46.4,237.7,45.8,239.4,44.1z M227.6,38h10.6
		c-0.3-2.3-2.2-4.3-5.2-4.3C229.9,33.7,228,35.9,227.6,38z M126.9,49.7h5.4l-8.5-9.9l8.4-9.3h-5.3l-6.4,7.4h-1.9v-7.4h-4.1v19.1h4.1
		v-7.6h1.9L126.9,49.7z M144.5,34c-3.5,0-5.8,2.7-5.8,6.1c0,3.4,2.3,6.1,5.8,6.1c3.5,0,5.7-2.6,5.7-6.1
		C150.3,36.8,148.1,34,144.5,34z M145.2,30.1c5.4,0,9.4,4.2,9.4,10c0,5.7-3.9,10.1-9.4,10.1c-2.6,0-4.7-0.9-6.2-2.5v10h-4.2V30.6
		h4.1v2.3C140.5,31,142.6,30.1,145.2,30.1z M199.7,30.6h-17.1v3.8h6.5v15.3h4.2V34.4h6.5V30.6z M111.6,30.6H94.4v3.8h6.5v15.3h4.2
		V34.4h6.5V30.6z M89.4,40.2c0-3.6-2.5-6.2-6-6.2c-3.4,0-6,2.6-6,6.2c0,3.6,2.5,6.2,6,6.2C86.8,46.4,89.4,43.8,89.4,40.2z
		 M73.1,40.2c0-5.7,4.4-10,10.3-10c5.8,0,10.3,4.3,10.3,10c0,5.7-4.4,10.1-10.3,10.1C77.6,50.2,73.1,45.9,73.1,40.2z M220,30.6v19.1
		h-4.1V37.4l-10,12.3h-3.3V30.6h4.1v12.3l10-12.3H220z M179.7,49.7h-4.1V30.6h4.1V49.7z M169.1,43.2c0-1.7-1.2-2.9-2.8-2.9h-4.2v5.9
		h4.2C167.9,46.2,169.1,44.9,169.1,43.2z M173.2,43.2c0,3.8-2.8,6.5-6.8,6.5H158V30.6h4.1v6.2h4.7C170.8,36.8,173.2,39.4,173.2,43.2
		z"/>
</g>
</svg>
