<svg width="144" height="40" viewBox="0 0 144 40" fill="none" xmlns="http://www.w3.org/2000/svg">
<g clip-path="url(#clip0_11946_51387)">
<path d="M40 32.44C40 37.3 37.3 40 32.44 40H7.56C2.7 40 0 37.3 0 32.44V7.56C0 2.7 2.7 0 7.56 0H32.45C37.3 0 40 2.7 40 7.56V32.44Z" fill="#FFE600"/>
<path d="M25.72 18.05V14.23L27.1 12.85V16.16L28.3 17.36L33.13 12.53L34.32 13.72C34.31 12.82 34.13 10.21 31.92 8.04C29.54 5.74 26.96 6.78 26.08 7.66L21.26 12.48L22.49 13.71L20 16.22L17.51 13.73L18.74 12.5L13.92 7.68C13.04 6.8 10.46 5.76 8.07999 8.06C5.86999 10.23 5.68999 12.84 5.67999 13.74L6.86999 12.55L11.7 17.38L12.9 16.18V12.87L14.28 14.25V18.07L16.22 20L6.65999 29.56L10.44 33.33L20 23.78L29.56 33.34L33.34 29.57L23.78 20L25.72 18.05Z" fill="#2B2D34"/>
<path d="M46.67 21.67H53.88V23.94H49.37V26.27H50.87C51.88 26.27 53.18 26.39 54.16 27.35C54.58 27.77 55.1 28.54 55.1 29.78C55.1 30.78 54.77 31.67 54.16 32.28C53.3 33.14 52.06 33.33 50.64 33.33H46.67V21.67ZM50.43 31.16C50.8 31.16 51.46 31.13 51.88 30.79C52.02 30.67 52.33 30.35 52.33 29.76C52.33 29.2 52.05 28.85 51.81 28.68C51.39 28.38 50.71 28.37 50.43 28.37H49.36V31.17H50.43V31.16Z" fill="#2B2D34"/>
<path d="M62.36 25.53H64.88V33.33H62.36V32.39C61.68 33.44 60.7 33.6 60.05 33.6C58.93 33.6 57.99 33.32 57.13 32.41C56.31 31.54 55.99 30.52 55.99 29.49C55.99 28.18 56.48 27.06 57.2 26.34C57.88 25.66 58.83 25.27 59.91 25.27C60.57 25.27 61.64 25.43 62.36 26.41V25.53V25.53ZM59.16 28C58.9 28.26 58.58 28.72 58.58 29.42C58.58 30.12 58.88 30.57 59.1 30.82C59.45 31.19 59.99 31.43 60.59 31.43C61.1 31.43 61.57 31.22 61.9 30.89C62.23 30.58 62.51 30.09 62.51 29.42C62.51 28.86 62.3 28.34 61.93 27.99C61.55 27.62 60.99 27.45 60.53 27.45C59.99 27.44 59.49 27.67 59.16 28Z" fill="#2B2D34"/>
<path d="M66.4 25.53H68.92V28.24H71.74V25.53H74.26V33.33H71.74V30.27H68.92V33.33H66.4V25.53Z" fill="#2B2D34"/>
<path d="M75.77 25.53H78.29V28.63L80.84 25.53H83.97L80.63 29.15L84.2 33.33H80.95L78.29 29.87V33.33H75.77V25.53V25.53Z" fill="#2B2D34"/>
<path d="M50.78 6.67C51.79 6.67 52.91 6.81 53.84 7.63C54.84 8.5 54.98 9.66 54.98 10.46C54.98 11.93 54.42 12.75 53.98 13.21C53.05 14.15 51.83 14.24 51.01 14.24H49.37V18.33H46.68V6.67H50.78ZM49.36 12.04H50.32C50.69 12.04 51.33 12.02 51.77 11.6C52.01 11.36 52.21 10.95 52.21 10.45C52.21 9.96 52.04 9.56 51.77 9.31C51.37 8.93 50.79 8.87 50.27 8.87H49.36V12.04V12.04Z" fill="#2B2D34"/>
<path d="M61.55 10.53H64.07V18.33H61.55V17.39C60.87 18.44 59.89 18.6 59.24 18.6C58.12 18.6 57.18 18.32 56.32 17.41C55.5 16.54 55.18 15.52 55.18 14.49C55.18 13.18 55.67 12.06 56.39 11.34C57.07 10.66 58.02 10.27 59.1 10.27C59.76 10.27 60.83 10.43 61.55 11.41V10.53V10.53ZM58.35 13C58.09 13.26 57.77 13.72 57.77 14.42C57.77 15.12 58.07 15.57 58.29 15.82C58.64 16.19 59.18 16.43 59.78 16.43C60.29 16.43 60.76 16.22 61.09 15.89C61.42 15.58 61.7 15.09 61.7 14.42C61.7 13.86 61.49 13.34 61.12 12.99C60.74 12.62 60.18 12.45 59.72 12.45C59.19 12.44 58.68 12.67 58.35 13Z" fill="#2B2D34"/>
<path d="M68.11 10.53V14.99L71.43 10.53H73.77V18.33H71.25V13.8L67.93 18.33H65.59V10.53H68.11V10.53ZM72.85 7.38C72.64 8.01 72.22 8.55 71.73 8.87C71.07 9.31 70.26 9.36 69.68 9.36C69.1 9.36 68.3 9.31 67.63 8.87C67.14 8.56 66.72 8.01 66.51 7.38L68.26 6.7C68.33 7.05 68.5 7.33 68.71 7.5C68.94 7.69 69.23 7.81 69.67 7.81C70.11 7.81 70.4 7.69 70.63 7.5C70.84 7.33 71.01 7.05 71.08 6.7L72.85 7.38Z" fill="#2B2D34"/>
<path d="M79.34 22.22V18.45H79.24C77.47 18.45 76.49 17.72 76.04 17.28C75.48 16.74 74.92 15.81 74.92 14.39C74.92 12.85 75.62 11.87 76.27 11.35C77.04 10.74 78.19 10.41 79.23 10.41H79.35V6.67H81.87V10.41H81.99C83.02 10.41 84.18 10.74 84.95 11.35C85.6 11.87 86.3 12.85 86.3 14.39C86.3 15.81 85.74 16.73 85.18 17.28C84.73 17.72 83.75 18.45 81.98 18.45H81.88V22.22H79.34V22.22ZM79.46 12.44C78.87 12.41 78.25 12.61 77.89 12.98C77.59 13.28 77.38 13.78 77.38 14.4C77.38 15.01 77.59 15.52 77.89 15.83C78.22 16.2 78.82 16.44 79.46 16.42V12.44ZM81.74 16.43C82.39 16.45 82.98 16.2 83.31 15.84C83.61 15.53 83.82 15.02 83.82 14.41C83.82 13.8 83.61 13.29 83.31 12.99C82.94 12.62 82.33 12.41 81.74 12.45V16.43Z" fill="#2B2D34"/>
<path d="M91.46 22.22V18.45H91.36C89.59 18.45 88.61 17.72 88.16 17.28C87.6 16.74 87.04 15.81 87.04 14.39C87.04 12.85 87.74 11.87 88.39 11.35C89.16 10.74 90.31 10.41 91.35 10.41H91.47V6.67H93.99V10.41H94.11C95.14 10.41 96.3 10.74 97.07 11.35C97.72 11.87 98.42 12.85 98.42 14.39C98.42 15.81 97.86 16.73 97.3 17.28C96.85 17.72 95.87 18.45 94.1 18.45H94V22.22H91.46V22.22ZM91.58 12.44C90.99 12.41 90.37 12.61 90.01 12.98C89.71 13.28 89.5 13.78 89.5 14.4C89.5 15.01 89.71 15.52 90.01 15.83C90.34 16.2 90.94 16.44 91.58 16.42V12.44ZM93.86 16.43C94.51 16.45 95.1 16.2 95.43 15.84C95.73 15.53 95.94 15.02 95.94 14.41C95.94 13.8 95.73 13.29 95.43 12.99C95.06 12.62 94.45 12.41 93.86 12.45V16.43Z" fill="#2B2D34"/>
<path d="M105.52 10.53H108.04V18.33H105.52V17.39C104.84 18.44 103.86 18.6 103.21 18.6C102.09 18.6 101.15 18.32 100.29 17.41C99.47 16.54 99.15 15.52 99.15 14.49C99.15 13.18 99.64 12.06 100.36 11.34C101.04 10.66 101.99 10.27 103.07 10.27C103.73 10.27 104.8 10.43 105.52 11.41V10.53V10.53ZM102.32 13C102.06 13.26 101.74 13.72 101.74 14.42C101.74 15.12 102.04 15.57 102.26 15.82C102.61 16.19 103.15 16.43 103.75 16.43C104.26 16.43 104.73 16.22 105.06 15.89C105.39 15.58 105.67 15.09 105.67 14.42C105.67 13.86 105.46 13.34 105.09 12.99C104.71 12.62 104.15 12.45 103.69 12.45C103.16 12.44 102.65 12.67 102.32 13Z" fill="#2B2D34"/>
<path d="M112.08 10.53V14.99L115.4 10.53H117.74V18.33H115.22V13.8L111.9 18.33H109.56V10.53H112.08V10.53ZM116.82 7.38C116.61 8.01 116.19 8.55 115.7 8.87C115.04 9.31 114.23 9.36 113.65 9.36C113.07 9.36 112.27 9.31 111.6 8.87C111.11 8.56 110.69 8.01 110.48 7.38L112.23 6.7C112.3 7.05 112.47 7.33 112.68 7.5C112.91 7.69 113.2 7.81 113.64 7.81C114.08 7.81 114.37 7.69 114.6 7.5C114.81 7.33 114.98 7.05 115.05 6.7L116.82 7.38Z" fill="#2B2D34"/>
<path d="M119.01 11.2C119.34 10.99 119.88 10.71 120.3 10.55C120.89 10.34 121.54 10.27 122.14 10.27C122.56 10.27 123.99 10.3 124.78 11.07C125.22 11.49 125.36 11.98 125.36 12.5C125.36 12.99 125.27 13.43 124.89 13.83C124.7 14.02 124.47 14.18 124.23 14.27C124.81 14.41 125.17 14.72 125.28 14.83C125.66 15.2 125.8 15.62 125.8 16.12C125.8 16.66 125.63 17.24 125.12 17.75C124.46 18.4 123.55 18.59 122.25 18.59C121.55 18.59 120.82 18.5 120.12 18.24C119.44 17.98 118.93 17.59 118.72 17.42L119.79 15.76C120.07 16 120.44 16.25 120.75 16.39C121.08 16.53 121.55 16.63 121.96 16.63C122.24 16.63 122.62 16.58 122.87 16.44C123.17 16.27 123.22 16.02 123.22 15.85C123.22 15.59 123.08 15.43 122.85 15.33C122.64 15.24 122.22 15.19 121.94 15.19H121V13.48H121.72C121.95 13.48 122.42 13.45 122.66 13.34C122.96 13.2 123.03 12.97 123.03 12.82C123.03 12.68 122.96 12.45 122.65 12.31C122.53 12.26 122.28 12.17 121.86 12.17C121.46 12.17 121.16 12.24 120.83 12.38C120.5 12.52 120.24 12.68 119.99 12.89L119.01 11.2Z" fill="#2B2D34"/>
<path d="M134.92 14.87H129.1C129.1 15.29 129.26 15.85 129.57 16.2C129.95 16.62 130.48 16.69 130.86 16.69C131.23 16.69 131.61 16.62 131.87 16.46C131.9 16.44 132.2 16.25 132.41 15.81L134.79 16.05C134.44 17.15 133.74 17.73 133.29 18.01C132.54 18.46 131.7 18.59 130.82 18.59C129.65 18.59 128.62 18.38 127.71 17.47C127.03 16.79 126.54 15.76 126.54 14.46C126.54 13.34 126.94 12.19 127.73 11.38C128.67 10.44 129.85 10.26 130.72 10.26C131.59 10.26 132.85 10.42 133.82 11.43C134.75 12.41 134.92 13.63 134.92 14.6V14.87V14.87ZM132.6 13.37C132.58 13.3 132.46 12.81 132.09 12.46C131.81 12.2 131.41 12.02 130.9 12.02C130.25 12.02 129.87 12.28 129.62 12.53C129.43 12.74 129.25 13.02 129.18 13.37H132.6Z" fill="#2B2D34"/>
<path d="M136.06 10.53H138.58V13.24H141.4V10.53H143.92V18.33H141.4V15.27H138.58V18.33H136.06V10.53Z" fill="#2B2D34"/>
</g>
<defs>
<clipPath id="clip0_11946_51387">
<rect width="143.91" height="40" fill="white"/>
</clipPath>
</defs>
</svg>