<svg width="1125" height="290" viewBox="0 0 1125 290" fill="none" xmlns="http://www.w3.org/2000/svg">
<path fill-rule="evenodd" clip-rule="evenodd" d="M281.302 135.643L285 122.158L272.76 122.602C271.733 122.602 264.21 122.346 256.927 116.333C257.475 116.384 258.008 116.478 258.578 116.478C266.078 116.478 273.345 111.326 276.248 103.956L281.512 90.6506C274.912 90.7529 268.875 89.8062 268.875 89.8062C268.822 89.8062 264.068 89.0982 258.57 82.6926C254.625 78.1123 249.743 75.6815 244.455 75.6815C242.362 75.6906 240.282 76.0675 238.29 76.7988C238.567 75.7241 238.83 74.6238 238.987 73.4979C240.66 61.045 233.632 51.5603 233.632 51.5603L224.43 38.5785L218.723 53.8291C218.7 53.8803 217.26 57.4626 214.688 59.2026C213.907 54.7162 211.995 49.6753 207.915 44.8562C200.213 35.7809 190.845 34.4162 185.94 34.4162C183.667 34.4162 182.04 34.7062 181.65 34.7744L170.543 37.265C171.18 34.4418 172.553 29.5032 175.043 25.0765L181.177 14.2015L165.75 16.2059L160.837 4.31588L151.32 9.90265L142.523 0L133.748 9.89412L124.215 4.31588L119.31 16.1974L103.89 14.1929L110.032 25.085C112.53 29.5118 113.888 34.4247 114.525 37.2479L103.928 34.8597L103.56 34.8C102.096 34.5378 100.617 34.4094 99.135 34.4162C94.23 34.4162 84.8625 35.7809 77.1825 44.8562C73.095 49.6668 71.175 54.7162 70.395 59.2026C67.8375 57.4712 66.405 53.9571 66.405 53.9571L60.69 38.6041L51.3375 51.6882C50.1975 53.3685 44.565 62.2903 46.0875 73.5235C46.2525 74.6409 46.5075 75.7326 46.785 76.8073C44.7985 76.0736 42.7236 75.6967 40.635 75.69C35.34 75.69 30.4575 78.1209 26.505 82.7012C21.03 89.0812 16.2975 89.8062 16.335 89.8062C16.335 89.8062 11.3325 90.8297 3.585 90.6591L8.8275 103.965C11.7375 111.334 19.0125 116.486 26.4975 116.486C27.0675 116.486 27.6 116.392 28.155 116.341C20.88 122.363 13.365 122.61 12.4575 122.61L0 122.158L3.7725 135.635C5.6775 142.595 12.0225 154.101 24.1725 155.338C22.8525 161.649 19.92 168.729 13.485 171.782L4.2 176.132L9.2625 186.18C12.12 191.596 18.8325 197.934 28.38 197.934C30.4425 197.934 32.4375 197.686 34.365 197.226C34.8525 199.699 35.4675 202.173 36.195 204.646C39.03 214.284 36.585 221.006 36.555 221.082L31.98 232.017L42.2025 235.088C42.33 235.139 45.4275 236.111 49.29 236.111C51.045 236.111 52.725 235.898 54.3 235.471C55.485 235.156 56.625 234.729 57.7275 234.226C59.055 236.93 60.66 239.404 62.535 241.613C69.09 249.281 78.39 253.161 90.15 253.161H90.1875L98.5875 253.034L81.2325 261.256L94.41 268.514C99.2025 271.176 104.873 274.314 110.663 276.72L109.012 281.846L113.55 284.209C113.955 284.422 122.7 288.866 137.213 289.812C137.213 289.812 140.715 290 142.642 290C144.577 290 148.043 289.804 148.043 289.804C162.458 288.831 171.128 284.422 171.533 284.209L176.085 281.846L174.427 276.711C180.367 274.238 186.255 270.962 190.853 268.412L203.782 261.247L186.48 253.034L194.918 253.161C206.693 253.161 215.993 249.272 222.54 241.604C224.408 239.404 226.005 236.939 227.34 234.226C230.017 235.485 232.888 236.123 235.785 236.103C239.587 236.103 242.715 235.147 242.798 235.113L253.073 232.017L248.595 221.279C248.49 221.006 246.045 214.284 248.88 204.629C249.607 202.173 250.215 199.691 250.71 197.226C252.638 197.686 254.655 197.925 256.732 197.934C268.897 197.934 274.732 188.184 275.857 186.069L280.875 176.124L271.59 171.782C265.14 168.737 262.215 161.658 260.91 155.355C272.902 154.161 279.33 142.646 281.31 135.652L281.302 135.643Z" fill="#FFFFFE"/>
<path fill-rule="evenodd" clip-rule="evenodd" d="M142.516 41.3078C132.691 41.3164 125.319 44.984 123.714 49.3084L142.516 57.7525L161.326 49.3084C159.736 44.984 152.364 41.3164 142.516 41.3078ZM142.719 265.111H142.344C136.389 265.154 128.176 263.763 124.231 262.441L119.476 277.103C122.611 278.374 133.231 280.814 142.539 280.814C151.831 280.814 162.459 278.374 165.586 277.103L160.839 262.45C156.871 263.763 148.674 265.154 142.719 265.111ZM178.696 250.526C175.156 252.812 167.259 256.24 162.661 257.827L166.516 269.939C173.626 267.721 179.499 265.137 184.344 262.365L176.334 259.337L178.696 250.526V250.526ZM106.359 250.526L108.729 259.337L100.711 262.365C105.549 265.137 111.444 267.721 118.531 269.93L122.394 257.818C117.804 256.232 109.891 252.812 106.359 250.526V250.526ZM142.516 27.294C149.934 27.294 157.194 29.3155 162.789 32.8552C163.299 30.9105 164.011 28.5393 164.979 26.0572L162.864 26.3472L160.651 26.6031L159.714 24.3087L156.879 17.5108L151.734 20.5643L149.724 21.7243L148.119 19.9331L142.516 13.6214L136.929 19.9331L135.331 21.7243L133.329 20.5643L128.154 17.5108L125.356 24.3087L124.404 26.6117L122.184 26.3472L120.084 26.0572C121.051 28.5393 121.756 30.9105 122.274 32.8552C127.884 29.3155 135.144 27.294 142.524 27.294H142.516ZM255.654 105.91C256.621 106.285 257.596 106.455 258.564 106.455C262.764 106.455 266.814 103.359 268.201 99.8281C268.201 99.8281 260.514 99.2993 252.249 89.7378C249.624 86.6502 246.834 85.7205 244.449 85.7205C240.736 85.7205 237.946 87.9467 237.946 87.9467C247.936 94.0025 249.969 103.726 255.654 105.91V105.91ZM26.4914 106.447C27.4664 106.447 28.4414 106.285 29.3789 105.901C35.0789 103.718 37.1339 94.0025 47.1014 87.9552C47.1014 87.9552 44.3114 85.7205 40.6214 85.7205C38.2214 85.7205 35.4389 86.6417 32.7989 89.7464C24.5415 99.2993 16.8615 99.8367 16.8615 99.8367C18.2415 103.359 22.2989 106.455 26.4914 106.455V106.447Z" fill="#FFFFFE"/>
<path fill-rule="evenodd" clip-rule="evenodd" d="M252.652 175.663C244.927 171.313 240.052 159.799 238.867 155.653C237.592 178.495 227.805 194.343 216.367 209.593C210.427 217.509 208.357 225.202 208.357 225.202C208.357 225.202 209.505 216.485 214.635 209.389C225.307 194.786 235.447 176.601 236.205 155.568C236.722 140.897 233.415 128.999 228.24 119.19C231.135 129.4 230.722 141.912 220.905 153.589C220.905 153.589 240.457 126.909 213.127 99.5468C202.192 89.1409 190.222 82.7097 184.065 78.155C206.317 86.4285 217.192 77.3191 217.192 77.3191C210.082 84.3388 200.88 84.2194 195.172 83.2044C196.725 84.0659 198.337 84.97 200.062 86.0191C218.835 97.6362 235.695 116.751 238.575 143.209V143.004C242.932 168.993 252.652 175.663 252.652 175.663ZM258.367 145.384C258.54 145.401 258.69 145.401 258.862 145.401C269.325 145.401 272.865 132.632 272.865 132.632H272.662C270.742 132.632 255.187 132.121 244.192 116.196C236.962 105.731 231.03 96.5274 219.315 92.9109L218.16 92.6721L217.912 91.3329C217.59 89.2944 218.812 87.3838 221.602 85.3282C237.765 73.2676 226.777 57.8806 226.777 57.8806C226.777 57.8806 222.172 70.18 211.845 70.18L211.072 70.1629C209.902 70.0947 208.77 70.0521 207.63 69.7706L205.725 69.3441C205.725 69.3441 208.672 60.2176 201.562 51.8503C196.215 45.5215 189.697 44.4468 185.94 44.4468C184.042 44.4468 182.842 44.7282 182.842 44.7282C186.412 50.0421 188.992 58.87 184.867 64.3118C181.305 68.9859 172.605 69.2162 172.605 76.1932C172.605 79.1444 175.027 82.5903 179.377 85.6865C192.457 95.0688 205.44 107.522 210.84 124.214C217.59 145.026 209.985 158.843 199.14 166.767C199.14 166.767 202.545 170.332 207.472 170.793C208.477 170.904 209.46 170.955 210.375 170.955C220.792 170.955 226.177 165.385 226.177 165.385C226.177 165.385 225.285 173.079 219.877 180.218C214.867 186.803 208.305 190.692 198.292 190.854C198.292 190.854 197.977 196.142 202.41 200.731C205.252 203.623 211.8 204.569 211.8 204.569C211.8 204.569 199.53 207.393 198.172 228.042C197.437 239.233 194.932 243.114 194.932 243.114H195.15C223.62 243.114 222.892 215.291 222.892 215.291C222.892 215.291 224.872 223.53 232.815 225.68C233.775 225.97 234.802 226.081 235.777 226.081C238.327 226.081 240.555 225.398 240.555 225.398C240.555 225.398 236.392 215.402 240.517 201.422C243.945 189.814 243.39 181.216 243.39 181.216C243.39 181.216 247.222 187.826 256.74 187.886H256.837C259.086 187.925 261.306 187.319 263.294 186.123C265.281 184.928 266.971 183.181 268.207 181.045C249.225 172.064 251.1 143.089 251.1 143.089C251.1 143.089 253.56 145.188 258.367 145.392V145.384ZM68.6999 209.593C57.2624 194.343 47.4749 178.495 46.1849 155.653C45.0074 159.807 40.1399 171.322 32.4224 175.663C32.4224 175.663 42.1274 168.993 46.4849 143.004V143.209C49.3724 116.751 66.2324 97.6362 85.0049 86.0277C86.7299 84.9615 88.3499 84.0659 89.8874 83.2129C84.1874 84.2194 74.9774 84.3388 67.8749 77.3276C67.8749 77.3276 78.7499 86.4285 100.995 78.155C94.8449 82.7097 82.8749 89.1409 71.9474 99.5468C44.6099 126.909 64.1624 153.589 64.1624 153.589C54.3374 141.904 53.9324 129.408 56.8274 119.19C51.6524 128.999 48.3374 140.897 48.8774 155.576C49.6199 176.601 59.7524 194.786 70.4024 209.397C75.5624 216.476 76.7249 225.194 76.7249 225.194C76.7249 225.194 74.6249 217.509 68.6999 209.593ZM73.2749 204.561C73.2749 204.561 79.8224 203.623 82.6649 200.723C87.0899 196.142 86.7824 190.854 86.7824 190.854C76.7624 190.692 70.2074 186.803 65.1749 180.218C59.7899 173.079 58.8899 165.385 58.8899 165.385C58.8899 165.385 64.2749 170.955 74.6774 170.955C75.6149 170.955 76.5899 170.904 77.5874 170.793C80.6654 170.438 83.5775 169.035 85.9424 166.767C75.0824 158.843 67.4774 145.026 74.2199 124.205C79.6199 107.53 92.5949 95.0688 105.69 85.6779C110.032 82.5903 112.447 79.1444 112.447 76.1932C112.447 69.2162 103.762 68.9859 100.2 64.3118C96.0749 58.87 98.6624 50.0421 102.225 44.7282C102.225 44.7282 101.032 44.4468 99.1274 44.4468C95.3774 44.4468 88.8599 45.5215 83.5049 51.8503C76.3799 60.2262 79.3424 69.3526 79.3424 69.3526L77.4374 69.7791C76.3049 70.0435 75.1574 70.0947 73.9874 70.1715L73.2374 70.18C62.8874 70.18 58.2899 57.8891 58.2899 57.8891C58.2899 57.8891 47.3174 73.2676 63.4799 85.3282C66.2549 87.3838 67.4774 89.3029 67.1549 91.3329L66.9074 92.6635L65.7299 92.9024C54.0374 96.5274 48.1049 105.731 40.8599 116.196C29.8649 132.121 14.3249 132.632 12.3974 132.632H12.1874C12.1874 132.632 15.7349 145.401 26.2049 145.401C26.3699 145.401 26.5199 145.401 26.6999 145.384C31.5074 145.188 33.9749 143.089 33.9749 143.089C33.9749 143.089 35.8349 172.064 16.8599 181.045C16.8599 181.045 20.3174 187.894 28.2374 187.894H28.3274C37.8524 187.826 41.6774 181.216 41.6774 181.216C41.6774 181.216 41.1224 189.822 44.5349 201.422C48.6599 215.41 44.5199 225.39 44.5199 225.39C44.5199 225.39 46.7324 226.072 49.2899 226.072C50.2799 226.072 51.2924 225.97 52.2449 225.68C60.1799 223.53 62.1674 215.291 62.1674 215.291C62.1674 215.291 61.4399 243.114 89.9174 243.114H90.1274C90.1274 243.114 87.6299 239.233 86.9024 228.042C85.5524 207.401 73.2674 204.561 73.2674 204.561H73.2749ZM136.102 102.037H149.527V107.283C147.952 105.082 144.877 105.534 144.877 105.534V113.1C144.877 113.1 144.982 116.819 146.137 118.431H139.492C140.655 116.819 140.752 113.1 140.752 113.1V105.534C140.752 105.534 137.692 105.082 136.102 107.283V102.037V102.037ZM121.477 102.822C121.942 103.394 122.4 104.016 122.842 104.639C122.947 104.784 123.045 104.912 123.15 105.082C123.562 105.696 123.975 106.362 124.372 107.027L124.642 107.479C125.115 108.298 125.565 109.142 126.015 110.021C130.125 118.098 136.695 122.926 142.522 122.934C148.365 122.926 154.927 118.098 159.045 110.021C159.502 109.125 159.96 108.255 160.44 107.436C160.987 106.482 161.573 105.557 162.195 104.664C162.652 104.016 163.125 103.385 163.605 102.805C163.687 102.72 163.755 102.626 163.837 102.549C165.937 100.11 168.42 98.2503 171.69 97.2182L170.235 96.2544H170.16L164.37 92.4332L158.437 88.5524L142.567 98.3953L142.522 98.3526L142.5 98.3953L126.63 88.5524L120.69 92.4332L114.9 96.2544H114.832L113.37 97.2182C116.632 98.2418 119.122 100.084 121.222 102.532C121.312 102.617 121.372 102.737 121.477 102.822V102.822Z" fill="#FFFFFE"/>
<path fill-rule="evenodd" clip-rule="evenodd" d="M137.47 68.6875V73.6345L136.638 73.191C136.6 73.1569 135.37 72.8498 133.248 70.9222C129.73 67.8175 129.663 64.9516 129.663 64.9516L137.463 68.6875H137.47ZM141.145 91.8619V61.1389L123.985 54.503L128.515 84.2707L141.153 91.8619H141.145ZM147.595 68.6875L155.395 64.9516C155.395 64.9516 155.335 67.8175 151.803 70.9222C149.68 72.8413 148.458 73.1569 148.42 73.191L147.595 73.626V68.6875ZM156.543 84.2792L161.05 54.5116L143.898 61.1389V91.8619L156.543 84.2707V84.2792ZM116.875 163.082C118.548 163.765 120.573 163.91 121.615 163.91C121.653 163.765 121.713 163.586 121.765 163.364C121.848 163.023 121.938 162.665 122.005 162.289C122.298 160.583 122.395 158.664 122.425 157.419C121.466 156.77 120.684 155.831 120.168 154.707C119.53 153.18 118.623 152.463 117.295 152.463C115.57 152.463 113.718 153.657 112.915 154.203C112.285 158.451 115.038 162.306 116.875 163.074V163.082ZM154.84 146.783C151.66 150.732 145.413 157.615 145.113 157.956L144.738 158.383L125.013 158.033C124.996 159.889 124.785 161.736 124.383 163.535L124.225 164.242L147.678 169.053C150.115 167.108 156.828 161.522 159.438 159.33C157.54 156.174 157.36 152.429 157.788 149.802C156.662 148.993 155.665 147.972 154.84 146.783V146.783Z" fill="#FFFFFE"/>
<path fill-rule="evenodd" clip-rule="evenodd" d="M157.525 119.761C152.98 124.896 148.622 126.798 144.73 127.242C144.017 127.329 143.301 127.375 142.585 127.378H142.487C141.055 127.378 139.627 127.206 138.227 126.866C137.972 128.018 137.65 130.432 138.572 132.718C139.397 134.79 141.07 136.334 143.515 137.366L144.34 137.733L144.347 138.739C144.347 139.038 144.542 145.571 150.797 147.388C151.817 146.194 152.747 145.111 153.422 144.198C152.147 140.778 152.822 137.281 154.675 135.566C154.6 135.933 153.775 144.505 159.812 147.695L160.81 148.233L160.51 149.435C160.412 149.802 158.402 158.101 165.715 161.189L167.005 161.752L166.427 163.176C166.3 163.492 163.435 171.023 170.185 175.305H184.817V162.059C179.612 161.334 177.415 156.566 176.845 153.188C174.422 152.719 172.555 151.533 171.272 149.597C168.197 144.991 170.837 140.769 170.875 140.539C170.867 140.573 170.875 145.06 173.305 147.84C174.512 149.171 175.937 150.211 178.105 150.442L179.162 150.553L179.252 151.789C179.275 152.054 179.852 158.135 184.817 159.09L184.81 132.052C184.81 127.856 185.882 123.642 187.172 119.753H157.525V119.761ZM118.127 132.155L117.737 149.367L119.462 149.674L123.662 133.153L121.525 128.069L118.135 132.155H118.127ZM127.232 195.903C127.117 195.899 127.003 195.868 126.899 195.813C126.794 195.757 126.701 195.678 126.624 195.579C126.548 195.481 126.49 195.366 126.454 195.241C126.418 195.117 126.404 194.985 126.415 194.854C126.421 194.725 126.451 194.598 126.501 194.482C126.551 194.366 126.621 194.262 126.707 194.177C126.793 194.092 126.893 194.028 127.001 193.987C127.109 193.947 127.224 193.931 127.337 193.942C127.832 193.967 128.177 194.453 128.162 194.982C128.145 195.244 128.037 195.488 127.863 195.66C127.689 195.832 127.463 195.92 127.232 195.903ZM164.447 211.145C164.575 211.145 164.725 211.163 164.86 211.205C167.485 212.058 168.137 222.788 172.72 223.743C173.17 223.854 173.59 223.88 173.95 223.88C175.277 223.88 176.065 223.24 176.92 222.089C176.92 222.089 174.61 217.969 172.885 215.18C170.597 211.529 168.82 207.12 164.552 207.12C164.447 207.12 164.327 207.12 164.215 207.137C163.402 207.174 162.616 207.476 161.95 208.007C160.525 206.935 158.858 206.357 157.15 206.343C154.487 206.343 152.402 207.742 151.36 207.742H151.322L141.797 206.668C140.305 206.497 139.127 204.791 138.7 204.126L138.535 203.836C138.535 203.537 138.535 203.239 138.52 202.974C138.197 194.095 132.167 190.3 130.015 190.231C130.015 190.231 130.27 188.543 129.692 187.903L127.592 190.803L120.692 186.862L125.612 193.413L121.45 198.744C120.925 199.349 120.992 200.168 121.21 200.518L123.01 202.326L125.29 200.748C125.402 200.654 125.612 200.62 125.867 200.62C126.497 200.62 127.442 200.808 128.29 200.808C129.227 200.808 130.03 200.586 130.127 199.588C129.842 202.88 127.157 208.604 128.92 213.099L130.225 216.493L121.802 215.112L117.857 222.694C116.642 225.219 116.447 227.948 117.617 229.433L119.095 231.539C119.095 231.539 121.165 229.04 121.622 227.394L120.955 226.558C120.392 225.85 120.422 225.219 120.767 224.46L123.242 219.786L133.18 222.455L133.705 221.432C134.38 220.153 135.355 219.777 136.42 219.777C136.862 219.777 137.312 219.837 137.777 219.922C139.622 220.34 142.66 220.895 145.697 220.895C149.035 220.895 152.342 220.212 154.105 217.969C157.705 224.05 165.01 225.014 164.432 228.11L162.512 238.533C163.787 238.465 165.01 238.371 166.172 238.192L168.002 227.351C168.15 226.431 168.28 225.507 168.392 224.579C167.687 223.76 165.985 222.046 165.017 219.956C163.735 217.133 164.432 215.658 163.232 211.99C163.232 211.99 163.607 211.137 164.447 211.137V211.145Z" fill="#FFFFFE"/>
<path fill-rule="evenodd" clip-rule="evenodd" d="M113.645 220.997C113.645 220.997 116.945 219.462 117.245 218.353L116.795 217.108C116.487 216.289 116.525 215.402 117.132 214.924L120.687 212.118L126.635 213.423C126.635 213.423 125.555 211.888 125.66 209.841L119.99 208.476L114.635 212.186C113.7 212.974 113.025 214.095 112.716 215.371C112.408 216.646 112.484 218.002 112.932 219.223L113.645 221.006V220.997ZM155.697 238.67C156.755 238.619 157.94 238.602 159.222 238.602C159.222 238.602 162.282 228.409 162.455 228.085C160.182 226.879 157.964 225.544 155.81 224.085C156.717 225.637 158.922 227.403 158.487 228.767L155.697 238.67Z" fill="#FFFFFE"/>
<path fill-rule="evenodd" clip-rule="evenodd" d="M184.819 178.222H100.257V214.464C100.257 229.288 109.669 238.559 123.567 238.559C135.169 238.559 138.229 239.071 142.542 243.958C145.519 240.572 147.979 239.318 153.042 238.841L153.154 238.286L155.817 228.895C155.667 228.682 151.317 223.044 151.317 223.044C149.592 223.701 148.137 223.812 145.692 223.812C143.194 223.812 140.367 223.471 137.299 222.822C137.012 222.745 136.717 222.705 136.422 222.703C136.047 222.703 136.024 222.737 135.919 222.95L135.394 223.948L134.419 225.774L132.597 225.287L124.482 223.112L123.364 225.202L123.537 225.432L124.519 226.669L124.084 228.29C123.484 230.397 121.549 232.862 120.957 233.544L118.932 236.017L117.079 233.365L115.692 231.377C114.229 229.518 113.892 226.669 114.717 223.684C114.693 223.704 114.664 223.716 114.634 223.718L112.347 224.801L111.319 222.242L110.592 220.443C109.893 218.601 109.768 216.544 110.235 214.611C110.703 212.677 111.736 210.983 113.164 209.807L119.689 205.602L125.914 206.992C126.064 206.31 126.289 203.887 126.462 203.265C126.342 203.247 126.229 203.222 126.109 203.222L122.524 204.74L119.074 202.028C119.074 202.028 117.724 200.544 118.947 199.06L122.284 193.285L113.809 181.173L126.837 187.263L127.707 186.044L129.462 183.638L131.457 185.805C131.981 186.388 132.346 187.132 132.507 187.946C136.092 189.541 142.527 194.24 143.097 201.883L141.087 202.795V202.855C141.544 203.478 141.927 203.734 142.047 203.759L151.347 204.8C151.587 204.749 151.872 204.629 152.202 204.527C153.364 204.075 155.097 203.418 157.152 203.418C158.832 203.418 160.452 203.862 162.004 204.697C162.582 204.442 163.279 204.262 164.104 204.203L164.554 204.186C169.527 204.186 172.002 208.425 173.989 211.811C174.319 212.4 174.649 212.945 174.994 213.491C176.734 216.289 179.007 220.375 179.097 220.554L180.124 222.37L178.864 224.042C177.904 225.322 176.442 226.814 173.952 226.814C173.388 226.809 172.825 226.743 172.272 226.618C171.762 226.507 171.264 226.332 170.787 226.098C170.71 226.7 170.623 227.3 170.524 227.897L168.897 237.595C178.647 234.866 184.842 226.473 184.842 214.464L184.819 178.222V178.222ZM100.257 175.305H166.032C162.747 171.433 162.799 166.545 163.632 163.364C162.745 162.879 161.92 162.259 161.179 161.522C158.607 163.68 150.762 170.187 148.714 171.825L148.272 172.166L122.457 166.844H121.932C121.317 166.844 120.409 166.818 119.419 166.673C119.313 167.212 119.072 167.705 118.725 168.092C118.378 168.478 117.94 168.742 117.464 168.851C116.988 168.96 116.494 168.91 116.042 168.707C115.591 168.504 115.201 168.156 114.919 167.705C114.722 167.398 114.58 167.049 114.503 166.678C114.425 166.308 114.414 165.923 114.469 165.547L114.567 164.908C111.912 162.775 109.444 157.999 110.539 152.967L110.644 152.438L111.019 152.131C111.398 151.837 111.788 151.564 112.189 151.312L110.314 150.971C109.981 150.906 109.684 150.696 109.485 150.385C109.286 150.074 109.201 149.688 109.249 149.307C109.369 148.506 110.022 147.943 110.719 148.088L115.182 148.89L115.594 130.969L122.239 122.952L126.394 132.905L122.014 150.152L125.959 150.86C126.296 150.923 126.597 151.135 126.797 151.45C126.997 151.765 127.078 152.157 127.024 152.54C126.976 152.88 126.822 153.189 126.591 153.411C126.36 153.633 126.067 153.754 125.764 153.751L125.562 153.743L122.344 153.146C122.389 153.265 122.449 153.325 122.494 153.444C122.852 154.151 123.391 154.716 124.039 155.065L143.712 155.432C144.544 154.502 146.607 152.199 148.737 149.76C146.883 148.986 145.255 147.64 144.036 145.872C142.818 144.105 142.056 141.987 141.837 139.755C139.137 138.441 137.262 136.479 136.227 133.92C134.967 130.747 135.417 127.575 135.754 126.031C133.129 124.947 130.369 122.952 127.549 119.762H97.9093C99.1843 123.651 100.257 127.865 100.257 132.052V175.297V175.305Z" fill="#FFE52B"/>
<path fill-rule="evenodd" clip-rule="evenodd" d="M127.33 193.942C127.216 193.931 127.101 193.947 126.992 193.988C126.884 194.029 126.783 194.095 126.697 194.18C126.611 194.266 126.541 194.371 126.492 194.488C126.442 194.606 126.413 194.733 126.407 194.863C126.398 194.993 126.412 195.124 126.449 195.248C126.486 195.371 126.544 195.485 126.62 195.583C126.697 195.68 126.79 195.758 126.894 195.814C126.998 195.869 127.11 195.899 127.225 195.904C127.454 195.92 127.68 195.834 127.854 195.663C128.028 195.493 128.136 195.251 128.155 194.991C128.167 194.728 128.087 194.47 127.933 194.273C127.778 194.076 127.562 193.957 127.33 193.942V193.942ZM166.525 269.939L162.662 257.827C167.26 256.232 175.157 252.803 178.705 250.526L176.343 259.337L184.345 262.365C179.5 265.128 173.635 267.713 166.525 269.93V269.939ZM142.54 280.814C133.233 280.814 122.612 278.375 119.477 277.104L124.233 262.45C128.178 263.764 136.382 265.154 142.345 265.111H142.72C148.675 265.154 156.872 263.755 160.84 262.45L165.588 277.104C162.453 278.383 151.833 280.814 142.54 280.814ZM100.72 262.365L108.73 259.337L106.36 250.526C109.892 252.803 117.812 256.241 122.395 257.827L118.532 269.939C111.445 267.721 105.557 265.128 100.72 262.365ZM184.705 259.678L179.83 257.546L181.18 251.814L182.657 245.562C182.657 245.562 174.033 250.901 161.86 254.902C158.41 256.028 155.8 256.548 155.8 256.548V260.804C155.8 260.804 149.29 262.083 142.72 262.083H142.345C135.76 262.083 129.265 260.804 129.265 260.804V256.539C129.265 256.539 126.647 256.028 123.197 254.902C111.04 250.893 102.415 245.562 102.415 245.562L103.87 251.814L105.25 257.546L100.36 259.678L94.9375 261.981C101.148 265.401 109.758 270.374 117.633 272.83L115.78 278.613C115.78 278.613 125.77 283.799 142.412 283.85V283.859H142.637V283.85C159.302 283.799 169.292 278.613 169.292 278.613L167.417 272.83C175.3 270.374 183.925 265.41 190.105 261.981L184.705 259.678V259.678ZM122.192 26.339L124.405 26.6119L125.357 24.309L128.147 17.511L133.323 20.5646L135.332 21.7331L142.517 13.6131L148.12 19.9249L149.725 21.7331L151.735 20.5646L156.88 17.511L159.715 24.309L160.652 26.6119L162.865 26.339L164.98 26.0575C164.012 28.5396 163.3 30.9022 162.782 32.864C157.195 29.3072 149.935 27.2943 142.525 27.2943C135.145 27.2943 127.885 29.3072 122.275 32.864C121.67 30.5457 120.939 28.2725 120.085 26.0575L122.185 26.339H122.192ZM142.517 30.834C152.44 30.834 160.368 34.5869 164.755 38.5702C164.755 38.5702 166.06 29.6399 170.5 21.7672L162.513 22.7908L158.335 12.6834L150.31 17.4002L142.517 8.63193L134.755 17.4002L126.715 12.6834L122.545 22.7993L114.557 21.7587C119.005 29.6399 120.302 38.5616 120.302 38.5616C124.712 34.5784 132.617 30.834 142.517 30.834V30.834ZM268.203 181.045C268.203 181.045 264.752 187.895 256.832 187.895H256.735C247.225 187.826 243.385 181.216 243.385 181.216C243.385 181.216 243.94 189.814 240.52 201.422C236.395 215.41 240.55 225.39 240.55 225.39C240.55 225.39 238.33 226.081 235.772 226.081C234.797 226.081 233.777 225.97 232.81 225.68C224.867 223.539 222.887 215.3 222.887 215.3C222.887 215.3 223.622 243.114 195.145 243.114H194.92C194.92 243.114 197.432 239.233 198.175 228.043C199.525 207.401 211.795 204.561 211.795 204.561C211.795 204.561 205.248 203.623 202.405 200.731C197.973 196.151 198.28 190.854 198.28 190.854C208.3 190.692 214.87 186.811 219.872 180.218C223.096 176 225.271 170.879 226.172 165.385C226.172 165.385 220.787 170.955 210.37 170.955C209.455 170.955 208.48 170.904 207.475 170.793C202.54 170.341 199.135 166.767 199.135 166.767C209.98 158.843 217.585 145.017 210.843 124.205C205.443 107.53 192.452 95.069 179.38 85.6866C175.03 82.5905 172.6 79.1446 172.6 76.1849C172.6 69.2163 181.3 68.9946 184.87 64.3119C188.995 58.8702 186.407 50.0422 182.837 44.7284C182.837 44.7284 184.037 44.4469 185.935 44.4469C189.7 44.4469 196.21 45.5216 201.565 51.8505C208.667 60.2263 205.72 69.3528 205.72 69.3528L207.625 69.7793C208.765 70.0437 209.897 70.1034 211.075 70.1716L211.84 70.1802C222.167 70.1802 226.78 57.8807 226.78 57.8807C226.78 57.8807 237.76 73.2678 221.598 85.3284C218.815 87.384 217.585 89.3031 217.907 91.3331L218.163 92.6722L219.31 92.9025C231.025 96.5275 236.958 105.739 244.195 116.196C255.19 132.121 270.745 132.633 272.657 132.633H272.867C272.867 132.633 269.32 145.401 258.857 145.401C258.685 145.401 258.535 145.401 258.363 145.384C253.563 145.188 251.087 143.09 251.087 143.09C251.087 143.09 249.22 172.064 268.203 181.045V181.045ZM258.857 149.308C271.682 149.308 275.972 134.441 276.152 133.81L277.578 128.564L272.777 128.735H272.762C271.06 128.735 256.915 128.308 246.887 113.783L245.935 112.435C239.38 102.942 233.162 93.909 222.047 89.7893C222.492 89.347 222.966 88.9449 223.465 88.5866C229.36 84.1684 232.795 78.8034 233.65 72.5684C234.917 63.1946 229.66 55.7228 229.435 55.4158L225.865 50.3834L223.63 56.354C223.48 56.7208 219.73 66.2737 211.84 66.2737H211.255C210.715 66.2481 210.197 66.2225 209.687 66.1713C209.965 61.9066 209.282 55.3219 204.032 49.1296C197.725 41.6834 189.985 40.566 185.935 40.566C183.775 40.566 182.335 40.8731 182.177 40.8902L176.785 42.1099L180.107 47.0996C182.717 50.9549 185.087 58.0599 182.282 61.7702C181.382 62.9643 179.538 63.911 177.775 64.8749C174.145 66.7769 169.18 69.4381 169.18 76.1849C169.18 80.5519 172.157 85.1322 177.557 89.0131C193.517 100.451 203.372 112.392 207.625 125.57C214.21 145.836 205.623 157.402 197.275 163.492L193.54 166.23L196.817 169.659C197.26 170.102 201.258 174.12 207.175 174.7C208.3 174.785 209.373 174.853 210.378 174.853C214.165 174.853 217.397 174.171 220.022 173.267C219.238 174.824 218.324 176.292 217.292 177.651C212.53 183.945 206.665 186.811 198.227 186.965L195.093 187.016L194.853 190.598C194.823 191.323 194.59 197.968 200.102 203.614C200.95 204.484 201.97 205.209 203.042 205.789C199.292 209.628 195.497 216.315 194.762 227.761C194.14 237.314 192.137 240.854 192.115 240.896L188.65 246.918L194.912 247.012C205.255 247.012 213.175 243.771 218.658 237.323C221.497 233.936 223.616 229.854 224.853 225.39C227.898 228.343 231.77 229.964 235.772 229.962C238.697 229.962 241.142 229.254 241.412 229.185L245.41 227.974L243.647 223.727C243.512 223.385 240.182 214.856 243.767 202.685C245.312 197.422 246.1 192.714 246.483 189.038C249.003 190.539 252.37 191.767 256.727 191.784C266.627 191.784 270.985 183.365 271.18 183.016L273.13 179.143L269.515 177.455C257.725 171.876 255.115 156.899 254.59 148.796C255.662 149.026 256.877 149.239 258.25 149.282L258.857 149.308V149.308Z" fill="#1A1919"/>
<path fill-rule="evenodd" clip-rule="evenodd" d="M244.456 85.7205C246.841 85.7205 249.631 86.6502 252.256 89.7463C260.521 99.2993 268.208 99.8366 268.208 99.8366C266.813 103.359 262.763 106.455 258.571 106.455C257.603 106.455 256.621 106.285 255.668 105.901C249.976 103.718 247.943 94.0025 237.961 87.9552C237.961 87.9552 240.736 85.7205 244.456 85.7205V85.7205ZM236.333 91.401C241.111 94.301 243.901 98.199 246.346 101.645C248.746 105.014 251.018 108.255 254.596 109.603C255.856 110.098 257.198 110.336 258.571 110.336C263.918 110.336 269.296 106.6 271.336 101.432L273.383 96.2628L268.426 95.9216C268.193 95.9216 261.811 95.2478 254.716 86.9913C251.791 83.5966 248.258 81.8225 244.456 81.8225C239.806 81.8225 236.356 84.4666 235.981 84.7396L231.421 88.3987L236.333 91.401V91.401ZM238.576 143.013V143.209C235.696 116.75 218.836 97.6446 200.063 86.0275C198.338 84.9699 196.726 84.0657 195.173 83.2128C200.881 84.2193 210.083 84.3387 217.193 77.3275C217.193 77.3275 206.318 86.4284 184.066 78.1549C190.216 82.7096 202.193 89.1407 213.128 99.5466C240.451 126.909 220.906 153.589 220.906 153.589C230.731 141.912 231.136 129.408 228.241 119.19C233.416 128.999 236.716 140.897 236.206 155.576C235.456 176.601 225.308 194.786 214.636 209.397C209.506 216.476 208.366 225.193 208.366 225.193C208.366 225.193 210.436 217.508 216.368 209.602C227.806 194.334 237.593 178.495 238.868 155.653C240.053 159.807 244.928 171.322 252.653 175.663C252.653 175.663 242.941 168.993 238.576 143.013V143.013ZM89.9258 243.114C61.4483 243.114 62.1758 215.299 62.1758 215.299C62.1758 215.299 60.1808 223.539 52.2533 225.68C51.2849 225.957 50.2893 226.091 49.2908 226.08C46.7408 226.08 44.5208 225.398 44.5208 225.398C44.5208 225.398 48.6683 215.402 44.5358 201.422C41.1308 189.822 41.6858 181.216 41.6858 181.216C41.6858 181.216 37.8533 187.826 28.3358 187.894H28.2383C20.3258 187.894 16.8683 181.045 16.8683 181.045C35.8433 172.064 33.9833 143.089 33.9833 143.089C33.9833 143.089 31.5083 145.188 26.7083 145.392H26.2058C15.7358 145.392 12.1883 132.632 12.1883 132.632H12.4058C14.3408 132.632 29.8733 132.12 40.8608 116.196C48.0983 105.73 54.0383 96.5272 65.7308 92.9107L66.9083 92.6719L67.1558 91.3328C67.4858 89.3028 66.2558 87.3837 63.4808 85.3281C47.3183 73.2675 58.2908 57.889 58.2908 57.889C58.2908 57.889 62.8808 70.1799 73.2383 70.1799L73.9883 70.1713C75.1583 70.1031 76.3058 70.0434 77.4383 69.7705L79.3433 69.3525C79.3433 69.3525 76.3883 60.226 83.5133 51.8502C88.8683 45.5213 95.3708 44.4466 99.1283 44.4466C101.041 44.4466 102.218 44.7281 102.218 44.7281C98.6633 50.0419 96.0833 58.8699 100.193 64.3116C103.763 68.9943 112.456 69.216 112.456 76.1846C112.456 79.1443 110.033 82.5902 105.691 85.6863C92.6033 95.0687 79.6208 107.522 74.2208 124.214C67.4858 145.025 75.0908 158.843 85.9433 166.775C85.9433 166.775 82.5308 170.341 77.5958 170.793C76.6286 170.899 75.6575 170.953 74.6858 170.955C64.2758 170.955 58.8908 165.394 58.8908 165.394C58.8908 165.394 59.7908 173.079 65.1758 180.226C70.2008 186.811 76.7633 190.692 86.7758 190.854C86.7758 190.854 87.0983 196.142 82.6658 200.731C79.8233 203.631 73.2758 204.569 73.2758 204.569C73.2758 204.569 85.5533 207.401 86.9033 228.042C87.6383 239.233 90.1283 243.114 90.1283 243.114H89.9258ZM92.9483 240.896C92.9408 240.853 90.9533 237.314 90.3158 227.761C89.5658 216.314 85.7708 209.627 82.0133 205.789C83.1008 205.209 84.1133 204.484 84.9533 203.614C90.4658 197.968 90.2333 191.332 90.1958 190.598L89.9858 187.016L86.8283 186.965C78.4133 186.811 72.5408 183.945 67.7783 177.65C66.7517 176.288 65.8378 174.82 65.0483 173.266C67.6733 174.179 70.8833 174.853 74.6858 174.853C75.6983 174.853 76.7633 174.785 77.8808 174.699C81.7088 174.265 85.3282 172.508 88.2533 169.667L91.5308 166.23L87.7958 163.5C79.4258 157.402 70.8683 145.844 77.4458 125.57C81.6983 112.392 91.5308 100.459 107.521 89.0128C112.921 85.1319 115.876 80.5516 115.876 76.1846C115.876 69.4378 110.926 66.7766 107.296 64.8746C105.526 63.9107 103.681 62.9555 102.788 61.7699C99.9758 58.0596 102.338 50.9546 104.956 47.0993L108.301 42.1096L102.878 40.8899C102.728 40.8643 101.303 40.5657 99.1283 40.5657C95.0858 40.5657 87.3533 41.6831 81.0533 49.1293C75.7958 55.3216 75.1058 61.9149 75.3758 66.171C74.8658 66.2222 74.3558 66.2478 73.8158 66.2734H73.2383C65.3183 66.2734 61.5833 56.7205 61.4408 56.3537L59.2133 50.3831L55.6133 55.4155C55.4108 55.7225 50.1383 63.1943 51.4283 72.5681C52.2758 78.7946 55.7108 84.1681 61.6058 88.5863C62.2508 89.0555 62.6933 89.4563 63.0158 89.789C51.8858 93.9087 45.6833 102.941 39.1283 112.435L38.1833 113.782C28.1633 128.308 13.9808 128.743 12.2858 128.743L7.45581 128.572L8.92581 133.809C9.09831 134.44 13.3733 149.307 26.2058 149.307L26.8208 149.282C28.1783 149.239 29.4008 149.026 30.4808 148.787C29.9558 156.89 27.3308 171.876 15.5408 177.446L11.9408 179.152L13.8908 183.015C14.0708 183.365 18.4508 191.784 28.3658 191.784C31.9145 191.824 35.4192 190.888 38.5808 189.054C38.9633 192.722 39.7583 197.422 41.3033 202.684C44.8883 214.847 41.5508 223.385 41.4233 223.726L39.6533 227.974L43.6508 229.177C43.9208 229.262 46.3808 229.961 49.2908 229.961C53.2947 229.973 57.1693 228.351 60.2108 225.39C61.2983 229.202 63.1658 233.51 66.3983 237.322C71.9033 243.762 79.8158 247.012 90.1508 247.012L96.4133 246.918L92.9483 240.896V240.896Z" fill="#1A1919"/>
<path fill-rule="evenodd" clip-rule="evenodd" d="M32.8022 89.7464C35.4422 86.6502 38.2247 85.712 40.6247 85.712C44.3147 85.712 47.1122 87.9552 47.1122 87.9552C37.1372 94.0111 35.0822 103.718 29.3822 105.91C28.4539 106.276 27.4772 106.457 26.4947 106.447C22.3022 106.447 18.2447 103.359 16.8647 99.8367C16.8647 99.8367 24.5447 99.2993 32.8022 89.7464V89.7464ZM26.4947 110.336C27.8672 110.336 29.2097 110.098 30.4847 109.603C34.0547 108.255 36.3347 105.023 38.7347 101.645C41.1872 98.2076 43.9472 94.3096 48.7322 91.4096L53.6522 88.3988L49.0772 84.7311C48.7022 84.4667 45.2747 81.8311 40.6247 81.8311C36.8147 81.8311 33.2747 83.5967 30.3572 86.9914C23.2547 95.2564 16.8872 95.9217 16.6547 95.9302L11.7047 96.2629L13.7297 101.44C15.7847 106.601 21.1547 110.336 26.4947 110.336V110.336ZM48.8672 155.576C48.3422 140.897 51.6422 128.999 56.8172 119.19C53.9372 129.408 54.3272 141.912 64.1672 153.598C64.1672 153.598 44.6072 126.901 71.9447 99.5552C82.8797 89.1408 94.8422 82.7096 100.992 78.1549C78.7472 86.4285 67.8797 77.319 67.8797 77.319C74.9822 84.3388 84.1847 84.2279 89.8922 83.2043C88.3472 84.0658 86.7272 84.9614 85.0022 86.0276C66.2297 97.6361 49.3772 116.751 46.4822 143.209V143.013C42.1247 168.993 32.4197 175.663 32.4197 175.663C40.1447 171.313 45.0047 159.798 46.1897 155.653C47.4797 178.495 57.2597 194.343 68.6897 209.602C74.6297 217.508 76.7147 225.193 76.7147 225.193C76.7147 225.193 75.5597 216.485 70.4072 209.397C59.7572 194.786 49.6172 176.601 48.8672 155.576V155.576ZM136.1 102.037V107.291C137.69 105.082 140.75 105.534 140.75 105.534V113.1C140.75 113.1 140.652 116.819 139.49 118.431H146.135C144.98 116.819 144.867 113.1 144.867 113.1V105.534C144.867 105.534 147.942 105.082 149.517 107.291V102.037H136.092H136.1ZM133.25 70.922C135.372 72.8411 136.602 73.1652 136.64 73.1908L137.465 73.6258V68.6873L129.665 64.9514C129.665 64.9514 129.732 67.8173 133.25 70.922V70.922ZM151.805 70.922C155.33 67.8173 155.405 64.9514 155.405 64.9514L147.597 68.6873V73.6343L148.422 73.1908C148.46 73.1652 149.682 72.8411 151.805 70.922Z" fill="#1A1919"/>
<path fill-rule="evenodd" clip-rule="evenodd" d="M142.532 57.7613L123.729 49.3001C125.327 44.9842 132.699 41.3165 142.532 41.308C152.372 41.3165 159.744 44.9842 161.342 49.3001L142.532 57.7613ZM156.549 84.2792L143.912 91.8704V61.1304L161.064 54.4945L156.549 84.2621V84.2792ZM164.379 92.4333L170.154 96.2545H170.237L171.692 97.2183C168.429 98.2418 165.932 100.11 163.839 102.549L163.614 102.805C163.121 103.404 162.648 104.024 162.197 104.664L161.934 105.057C161.484 105.714 161.057 106.387 160.659 107.087L160.442 107.437C159.955 108.281 159.493 109.143 159.054 110.021C154.929 118.098 148.367 122.926 142.532 122.943C136.697 122.926 130.127 118.098 126.017 110.021C125.58 109.16 125.122 108.312 124.644 107.479L124.374 107.027C123.982 106.368 123.577 105.72 123.159 105.082C123.054 104.912 122.957 104.784 122.852 104.639C122.412 104.017 121.954 103.411 121.479 102.822C121.382 102.737 121.314 102.626 121.224 102.532C119.082 99.9802 116.366 98.1427 113.372 97.2183L114.842 96.2545H114.902L120.699 92.4333L126.632 88.5524L142.502 98.3954L142.532 98.3612L142.577 98.3954L158.439 88.5524L164.379 92.4333ZM187.179 119.762C185.882 123.651 184.809 127.864 184.809 132.052L184.824 159.091C179.867 158.152 179.274 152.062 179.259 151.798L179.169 150.561L178.097 150.45C176.278 150.268 174.579 149.344 173.312 147.849C170.874 145.077 170.874 140.59 170.874 140.548C170.844 140.778 168.204 144.983 171.264 149.589C172.554 151.534 174.429 152.736 176.844 153.205C177.414 156.574 179.619 161.342 184.824 162.076V175.297H170.192C163.442 171.023 166.299 163.5 166.434 163.176L167.004 161.743L165.714 161.189C158.402 158.101 160.419 149.794 160.517 149.435L160.817 148.224L159.812 147.695C153.782 144.505 154.599 135.925 154.682 135.567C152.822 137.281 152.154 140.769 153.429 144.207C152.739 145.111 151.809 146.194 150.797 147.388C149.035 146.951 147.449 145.866 146.283 144.301C145.118 142.737 144.437 140.779 144.347 138.731L144.339 137.724L143.514 137.366C141.077 136.343 139.404 134.79 138.572 132.718C137.649 130.423 137.972 128.027 138.227 126.858C139.628 127.189 141.055 127.36 142.487 127.37H142.584C143.312 127.37 144.024 127.319 144.729 127.242C148.629 126.798 152.979 124.896 157.524 119.762H187.179V119.762ZM168.894 237.595L170.529 227.897L170.792 226.106C171.801 226.556 172.873 226.796 173.957 226.814C176.447 226.814 177.902 225.313 178.869 224.042L180.114 222.379L179.094 220.554C179.004 220.374 176.732 216.289 174.992 213.491C174.646 212.939 174.314 212.375 173.994 211.802C172.007 208.425 169.524 204.186 164.544 204.186L164.102 204.203C163.385 204.247 162.677 204.41 162.002 204.689C160.486 203.865 158.829 203.434 157.149 203.427C155.46 203.473 153.789 203.842 152.207 204.518C151.877 204.629 151.577 204.749 151.344 204.8L142.044 203.759C141.924 203.725 141.549 203.469 141.084 202.855V202.795L143.094 201.883C142.532 194.24 136.089 189.541 132.504 187.946C132.345 187.128 131.981 186.381 131.454 185.796L129.459 183.638L127.704 186.035L126.842 187.263L113.807 181.165L122.282 193.285L118.944 199.059C117.714 200.535 119.072 202.028 119.072 202.028L122.522 204.74L126.107 203.213C126.227 203.213 126.332 203.247 126.459 203.264C126.287 203.887 126.062 206.318 125.912 206.992L119.694 205.602L113.169 209.807C109.802 212.621 109.344 217.261 110.597 220.443L111.317 222.251L112.344 224.801L114.632 223.727C114.669 223.709 114.699 223.701 114.722 223.675C113.897 226.669 114.234 229.509 115.697 231.377L117.084 233.365L118.929 236.026L120.954 233.544C121.554 232.862 123.489 230.397 124.082 228.281L124.517 226.669L123.534 225.432L123.369 225.202L124.479 223.112L132.594 225.296L134.424 225.774L135.399 223.94L135.924 222.95C136.022 222.737 136.044 222.703 136.419 222.703C136.712 222.703 136.997 222.737 137.304 222.822C140.072 223.444 142.884 223.772 145.704 223.803C148.127 223.803 149.589 223.701 151.314 223.044C151.314 223.044 155.672 228.674 155.822 228.895L153.152 238.278L153.032 238.841C147.984 239.31 145.524 240.572 142.547 243.958C138.227 239.079 135.174 238.559 123.572 238.559C109.674 238.559 100.254 229.288 100.254 214.455V178.222H184.824L184.839 214.455C184.839 226.473 178.644 234.857 168.894 237.595V237.595ZM116.807 217.108L117.249 218.362C116.949 219.453 113.649 221.006 113.649 221.006L112.944 219.223C112.494 218.001 112.417 216.643 112.726 215.366C113.034 214.089 113.711 212.966 114.647 212.178L119.994 208.467L125.672 209.832C125.559 211.888 126.639 213.423 126.639 213.423L120.699 212.127L117.137 214.924C116.537 215.402 116.492 216.289 116.807 217.108V217.108ZM167.994 227.343L166.172 238.184C165.002 238.372 163.772 238.474 162.512 238.525L164.432 228.119C165.002 225.014 157.712 224.051 154.104 217.969C152.342 220.221 149.034 220.895 145.704 220.895C142.659 220.895 139.629 220.34 137.777 219.922C137.331 219.834 136.879 219.786 136.427 219.777C135.354 219.777 134.387 220.153 133.712 221.441L133.187 222.464L123.242 219.794L120.767 224.46C120.422 225.219 120.392 225.85 120.954 226.558L121.629 227.394C121.164 229.04 119.094 231.539 119.094 231.539L117.617 229.433C116.447 227.949 116.642 225.219 117.857 222.694L121.802 215.103L130.224 216.494L128.919 213.09C127.157 208.595 129.842 202.881 130.127 199.588C130.029 200.586 129.227 200.808 128.297 200.808C127.442 200.808 126.497 200.629 125.867 200.629C125.619 200.629 125.402 200.654 125.289 200.748L123.009 202.326L121.209 200.518C120.992 200.177 120.924 199.349 121.449 198.735L125.619 193.413L120.699 186.862L127.584 190.812L129.692 187.903C130.269 188.551 130.014 190.232 130.014 190.232C132.167 190.3 138.204 194.095 138.519 202.966C138.542 203.239 138.542 203.537 138.542 203.836L138.699 204.126C139.127 204.8 140.304 206.514 141.797 206.668L151.322 207.742H151.359C152.409 207.742 154.487 206.344 157.149 206.344C158.612 206.344 160.224 206.77 161.949 208.007C161.949 208.007 162.819 207.222 164.222 207.137C164.327 207.12 164.447 207.12 164.544 207.12C168.819 207.12 170.597 211.521 172.892 215.18C174.617 217.961 176.919 222.089 176.919 222.089C176.072 223.24 175.277 223.88 173.949 223.88C173.536 223.882 173.124 223.836 172.719 223.744C168.144 222.78 167.477 212.058 164.867 211.205C164.73 211.164 164.589 211.144 164.447 211.146C163.607 211.146 163.239 211.999 163.239 211.999C164.439 215.658 163.734 217.133 165.024 219.957C165.984 222.046 167.687 223.761 168.392 224.579C168.392 224.579 168.204 226.166 167.994 227.352V227.343ZM159.227 238.602C157.952 238.602 156.767 238.619 155.702 238.67L158.492 228.767C158.927 227.394 156.722 225.629 155.814 224.076C157.187 225.066 160.749 227.232 162.467 228.085C161.354 231.577 160.274 235.083 159.227 238.602V238.602ZM117.737 149.367L118.134 132.155L121.524 128.069L123.654 133.153L119.454 149.674L117.729 149.376L117.737 149.367ZM120.174 154.707C120.689 155.828 121.468 156.764 122.424 157.41C122.398 159.046 122.26 160.678 122.012 162.289C121.937 162.664 121.862 163.014 121.764 163.364C121.719 163.586 121.659 163.765 121.622 163.91C120.579 163.91 118.547 163.765 116.889 163.074C115.044 162.306 112.292 158.451 112.929 154.203C113.724 153.649 115.569 152.463 117.302 152.463C118.629 152.463 119.537 153.18 120.174 154.707V154.707ZM159.444 159.329C156.842 161.522 150.122 167.108 147.684 169.053L124.224 164.242L124.389 163.534C124.689 162.144 125.012 160.251 125.027 158.024L144.744 158.383L145.119 157.956C145.419 157.615 151.667 150.732 154.847 146.783C155.604 147.866 156.549 148.889 157.794 149.794C157.374 152.438 157.547 156.174 159.444 159.329V159.329ZM127.547 119.762C130.374 122.952 133.127 124.939 135.752 126.031C135.414 127.566 134.964 130.756 136.224 133.92C137.259 136.479 139.134 138.441 141.842 139.754C142.142 142.91 143.889 147.661 148.742 149.759C146.612 152.199 144.542 154.502 143.717 155.423L124.037 155.073C123.387 154.72 122.848 154.148 122.492 153.436C122.454 153.325 122.387 153.265 122.342 153.146L125.559 153.743L125.762 153.751C126.064 153.754 126.358 153.633 126.589 153.411C126.82 153.189 126.974 152.88 127.022 152.54C127.076 152.158 126.995 151.767 126.797 151.452C126.599 151.138 126.3 150.925 125.964 150.86L122.012 150.143L126.392 132.905L122.244 122.952L115.592 130.969L115.187 148.889L110.717 148.079C110.027 147.926 109.367 148.506 109.239 149.299C109.189 149.683 109.274 150.074 109.474 150.388C109.675 150.702 109.975 150.914 110.312 150.979L112.187 151.303C111.512 151.738 111.069 152.088 111.017 152.131L110.642 152.438L110.537 152.967C109.449 157.999 111.909 162.775 114.564 164.908L114.467 165.547C114.362 166.315 114.512 167.083 114.917 167.705C115.147 168.084 115.456 168.392 115.816 168.603C116.175 168.814 116.575 168.922 116.979 168.917C117.548 168.911 118.098 168.688 118.54 168.282C118.983 167.876 119.292 167.312 119.417 166.682C120.407 166.81 121.314 166.844 121.929 166.844H122.462L148.269 172.158L148.712 171.825C150.767 170.187 158.612 163.679 161.177 161.522C161.889 162.212 162.677 162.844 163.629 163.364C162.797 166.545 162.744 171.433 166.029 175.305H100.254V132.061C100.254 127.864 99.1819 123.651 97.9069 119.762H127.547V119.762ZM123.992 54.5115L141.159 61.1389V91.8618L128.522 84.2707L123.992 54.503V54.5115ZM165.872 50.8013C165.872 43.3039 154.794 36.5571 142.569 36.5571H142.494C130.269 36.5571 119.199 43.3039 119.199 50.8013L119.439 52.6436L124.322 84.5692L119.417 87.8104L106.734 96.2545H106.779C106.779 96.2545 103.929 97.9263 102.602 98.9498C97.7719 102.771 96.7444 108.349 99.5494 110.652C100.239 106.106 103.397 101.355 109.299 101.355C113.559 101.355 116.799 103.863 119.424 107.607C120.099 108.554 120.737 109.569 121.329 110.652C122.064 112.025 122.807 113.237 123.534 114.397H90.8494C93.2494 119.898 95.5369 125.724 95.5369 132.052V214.464C95.5369 234.405 108.999 243.924 123.564 243.924C134.822 243.924 136.337 243.344 142.547 250.389C148.727 243.344 150.249 243.924 161.514 243.924C176.087 243.924 189.527 234.405 189.527 214.464V132.052C189.527 125.724 191.814 119.898 194.229 114.397H161.529C162.264 113.237 162.999 112.025 163.734 110.652C164.334 109.569 164.972 108.554 165.632 107.607C168.272 103.846 171.512 101.355 175.772 101.355C181.674 101.355 184.824 106.106 185.522 110.652C188.327 108.349 187.314 102.771 182.447 98.9498C181.157 97.9263 178.292 96.2545 178.292 96.2545H178.344L165.632 87.8104L160.757 84.5692L165.632 52.6436L165.872 50.8013V50.8013Z" fill="#1A1919"/>
<path d="M375.9 188.159H398.4V128.623H429.3V106.959H345V128.623H375.9V188.159ZM497.55 106.959L460.05 154.212V106.959H438.3V188.159H457.5L495 140.906V188.159H516.75V106.959H497.55ZM554.977 157.965H589.927V188.159H611.677V106.959H589.927V136.641H554.977V106.959H533.227V188.159H554.977V157.965ZM672.247 188.159C677.197 188.159 681.697 187.647 685.897 186.282C697.147 182.7 704.497 172.294 704.497 158.135C704.497 144.659 698.197 135.276 688.147 131.012C683.347 128.965 677.647 128.794 672.247 128.794H649.897V106.959H628.147V188.159H672.247V188.159ZM649.897 147.9H668.497C671.497 147.9 674.347 147.9 676.897 148.923C680.497 150.288 682.597 153.7 682.597 157.794C682.597 162.059 680.497 165.641 677.047 167.347C674.647 168.541 672.247 168.541 668.497 168.541H649.897V147.9V147.9ZM737.497 157.453H743.497L769.447 188.159H798.397L762.247 145.853L797.047 106.959H769.747L743.497 137.494H737.497V106.959H715.747V188.159H737.497V157.453V157.453Z" fill="#FFFFFE"/>
<path d="M843.148 104.741C813.898 104.741 796.348 123.506 796.348 147.729C796.348 171.953 813.898 190.718 843.148 190.718C872.248 190.718 889.798 171.953 889.798 147.729C889.798 123.506 872.248 104.741 843.148 104.741V104.741ZM843.148 170.929C828.598 170.929 819.298 161.035 819.298 147.729C819.298 134.424 828.598 124.7 843.148 124.7C857.548 124.7 866.998 134.424 866.998 147.729C866.998 161.035 857.548 170.929 843.148 170.929ZM962.233 110.541V102.353H940.483V110.541C913.183 111.224 896.833 124.359 896.833 147.559C896.833 170.759 913.183 182.871 940.483 183.553V191.741H962.233V183.553C989.683 182.871 1006.03 170.759 1006.03 147.559C1006.03 124.359 989.683 111.224 962.233 110.541ZM940.483 166.153C925.483 165.471 918.883 158.476 918.883 147.559C918.883 136.641 925.483 128.794 940.483 128.112V166.153ZM962.233 166.153V128.112C977.383 128.794 983.833 136.641 983.833 147.559C983.833 158.476 977.383 165.471 962.233 166.153ZM1078.39 110.541V102.353H1056.64V110.541C1029.34 111.224 1012.99 124.359 1012.99 147.559C1012.99 170.759 1029.34 182.871 1056.64 183.553V191.741H1078.39V183.553C1105.84 182.871 1122.19 170.759 1122.19 147.559C1122.19 124.359 1105.84 111.224 1078.39 110.541ZM1056.64 166.153C1041.64 165.471 1035.04 158.476 1035.04 147.559C1035.04 136.641 1041.64 128.794 1056.64 128.112V166.153ZM1078.39 166.153V128.112C1093.54 128.794 1099.99 136.641 1099.99 147.559C1099.99 158.476 1093.54 165.471 1078.39 166.153Z" fill="#FFFFFE"/>
</svg>