<svg viewBox="0 0 91 32" fill="none" xmlns="http://www.w3.org/2000/svg"><path fill-rule="evenodd" clip-rule="evenodd" d="M27.35 0H6.11L4.568 4.213h21.24L27.35 0zm-2.315 6.348H3.797l-1.543 4.213h21.24l1.541-4.213zm-2.313 6.289H1.483L0 16.849h21.238l1.484-4.212z" fill="#009FDF"/><path fill-rule="evenodd" clip-rule="evenodd" d="M85.788 18.52v.087c.963.35 1.881.963 2.363 1.357 1.488 1.226 2.145 2.845 2.145 4.946 0 3.457-1.838 5.952-4.858 6.74-.92.263-1.883.35-3.677.35h-9.147V6.703h8.096c1.664 0 2.802.087 3.809.35 2.932.788 4.858 2.802 4.858 5.996 0 1.707-.613 3.152-1.62 4.114a6.138 6.138 0 01-1.97 1.357zm-8.097 2.67v6.652h3.501c1.05 0 2.014-.087 2.714-.744.7-.656 1.006-1.488 1.006-2.582 0-.832-.218-1.62-.656-2.189-.744-.918-1.663-1.137-3.24-1.137h-3.325zm-.044-4.377h2.845c.875 0 1.313 0 1.75-.132 1.182-.35 1.926-1.4 1.926-2.844 0-1.707-.787-2.451-1.925-2.8-.482-.133-.963-.176-1.926-.176h-2.67v5.952zM58.039 32V10.948h-7.31V6.703h20.31l-1.446 4.245h-6.477V32h-5.077zm-21.355 0L28.727 6.703h5.582l3.088 10.986c.89 3.266 1.366 4.988 1.96 7.72.534-2.613.89-3.86 1.9-7.542l3.087-11.164h5.345L41.612 32h-4.928z" fill="#fff"/></svg>