<?xml version="1.0"?>
<svg xmlns="http://www.w3.org/2000/svg" xmlns:xlink="http://www.w3.org/1999/xlink" version="1.1" id="Capa_1" x="0px" y="0px" viewBox="0 0 330 330" style="enable-background:new 0 0 330 330;" xml:space="preserve" width="512px" height="512px" class=""><g><g>
	<path d="M315,210c-8.284,0-15,6.716-15,15v53.785l-94.392-94.392c-5.857-5.858-15.355-5.858-21.213,0   c-5.858,5.858-5.858,15.355,0,21.213l94.39,94.39L224.999,300c-8.284,0-15,6.717-14.999,15.001   c0.001,8.284,6.717,14.999,15.001,14.999l90-0.006c8.284,0,14.999-6.716,14.999-15V225C330,216.716,323.284,210,315,210z" data-original="#000000" class="active-path" data-old_color="#000000" fill="#FFFFFF"/>
	<path d="M15,120c8.284,0,15-6.716,15-15V51.215l94.392,94.392c2.929,2.929,6.768,4.394,10.606,4.394   c3.839,0,7.678-1.464,10.607-4.394c5.858-5.858,5.858-15.355,0-21.213l-94.39-94.39L105.001,30c8.284,0,15-6.717,14.999-15.001   S113.283,0,104.999,0l-90,0.006C6.715,0.006,0,6.722,0,15.006V105C0,113.284,6.716,120,15,120z" data-original="#000000" class="active-path" data-old_color="#000000" fill="#FFFFFF"/>
	<path d="M124.394,184.395l-94.39,94.39L30,224.999c0-8.284-6.717-14.999-15.001-14.999S0,216.717,0,225.001l0.006,90   c0,8.284,6.716,14.999,15,14.999H105c8.284,0,15-6.716,15-15s-6.716-15-15-15H51.215l94.392-94.392   c5.858-5.858,5.858-15.355,0-21.213C139.749,178.537,130.251,178.537,124.394,184.395z" data-original="#000000" class="active-path" data-old_color="#000000" fill="#FFFFFF"/>
	<path d="M195,149.997c3.839,0,7.678-1.464,10.606-4.394l94.39-94.39L300,105.001c0.001,8.284,6.717,15,15.001,14.999   c8.284-0.001,15-6.717,14.999-15.001l-0.006-90C329.993,6.715,323.278,0,314.994,0H225c-8.284,0-15,6.716-15,15s6.716,15,15,15   h53.784l-94.391,94.391c-5.858,5.858-5.858,15.355,0,21.213C187.322,148.533,191.161,149.997,195,149.997z" data-original="#000000" class="active-path" data-old_color="#000000" fill="#FFFFFF"/>
</g></g> </svg>
