<?xml version="1.0"?>
<svg xmlns="http://www.w3.org/2000/svg" xmlns:xlink="http://www.w3.org/1999/xlink" version="1.1" id="Capa_1" x="0px" y="0px" viewBox="0 0 472.99 472.99" style="enable-background:new 0 0 472.99 472.99;" xml:space="preserve" width="512px" height="512px"><g><g>
	<path
    d="M364.63,243.307H246.495v-10c0-16.542-13.458-30-30-30H72.548c-5.514,0-10-4.486-10-10c0-5.514,4.486-10,10-10h327.894   c16.542,0,30-13.458,30-30s-13.458-30-30-30H108.508c-5.514,0-10-4.486-10-10c0-5.514,4.486-10,10-10h255.973   c16.542,0,30-13.458,30-30s-13.458-30-30-30H256.495c-5.514,0-10-4.486-10-10V22.964c0-5.523-4.477-10-10-10s-10,4.477-10,10   v10.344c0,16.542,13.458,30,30,30h107.987c5.514,0,10,4.486,10,10c0,5.514-4.486,10-10,10H108.508c-16.542,0-30,13.458-30,30   s13.458,30,30,30h291.934c5.514,0,10,4.486,10,10c0,5.514-4.486,10-10,10H72.548c-16.542,0-30,13.458-30,30s13.458,30,30,30   h143.947c5.514,0,10,4.486,10,10v10H108.359C48.61,243.307,0,291.917,0,351.667s48.61,108.359,108.359,108.359   c34.03,0,65.934-15.961,86.39-42.958h83.491c20.456,26.997,52.36,42.958,86.39,42.958c59.75,0,108.359-48.61,108.359-108.359   S424.38,243.307,364.63,243.307z M364.63,440.026c-29.211,0-56.505-14.429-73.013-38.598c-1.863-2.728-4.954-4.36-8.258-4.36   h-93.73c-3.304,0-6.395,1.632-8.258,4.36c-16.507,24.169-43.802,38.598-73.013,38.598C59.638,440.026,20,400.388,20,351.667   s39.638-88.359,88.359-88.359H364.63c48.722,0,88.359,39.638,88.359,88.359S413.352,440.026,364.63,440.026z"
    data-original="#000000" class="active-path" data-old_color="#000000" fill="#8f9dae"/>
	<path d="M108.359,287.922c-35.148,0-63.744,28.595-63.744,63.744s28.596,63.744,63.744,63.744s63.744-28.595,63.744-63.744   S143.508,287.922,108.359,287.922z M108.359,395.411c-24.121,0-43.744-19.624-43.744-43.744s19.624-43.744,43.744-43.744   s43.744,19.624,43.744,43.744S132.48,395.411,108.359,395.411z" data-original="#000000" class="active-path" data-old_color="#000000" fill="#8f9dae"/>
	<path d="M327.958,336.704c-8.28,0.01-14.99,6.73-14.98,15.02c0.01,8.27,6.72,14.98,15,14.98h0.01c8.29-0.01,14.99-6.73,14.99-15.01   C342.968,343.404,336.248,336.694,327.958,336.704z" data-original="#000000" class="active-path" data-old_color="#000000" fill="#8f9dae"/>
	<path d="M401.238,336.554c-8.28,0.02-14.98,6.76-14.95,15.05c0.02,8.26,6.73,14.95,15,14.95c0.01,0,0.03,0,0.04,0   c8.29-0.03,14.98-6.76,14.96-15.05C416.258,343.224,409.528,336.524,401.238,336.554z" data-original="#000000" class="active-path" data-old_color="#000000" fill="#8f9dae"/>
	<path d="M364.718,373.324c-0.03,0-0.06,0-0.09,0c-8.28,0-15,6.71-15,15c0,8.28,6.72,15,15,15c0.02,0,0.04,0,0.06,0   c0.03,0,0.06,0,0.09,0c0.02,0,0.04,0,0.06,0c8.29-0.04,14.98-6.78,14.94-15.06C379.748,379.974,373.008,373.284,364.718,373.324z" data-original="#000000" class="active-path" data-old_color="#000000" fill="#8f9dae"/>
	<path d="M364.558,330.014c0.01,0,0.02,0,0.03,0c8.28-0.02,14.98-6.75,14.97-15.03c-0.02-8.29-6.75-14.99-15.03-14.97   c-8.29,0.01-14.99,6.74-14.97,15.03C349.568,323.314,356.288,330.014,364.558,330.014z" data-original="#000000" class="active-path" data-old_color="#000000" fill="#8f9dae"/>
	<path d="M118.359,341.667v-13.969c0-5.523-4.477-10-10-10s-10,4.477-10,10v13.969H84.39c-5.523,0-10,4.477-10,10s4.477,10,10,10   h13.97v13.969c0,5.523,4.477,10,10,10s10-4.477,10-10v-13.969h13.969c5.523,0,10-4.477,10-10s-4.477-10-10-10H118.359z" data-original="#000000" class="active-path" data-old_color="#000000" fill="#8f9dae"/>
	<path d="M220.544,358.461h-19.141c-5.523,0-10,4.477-10,10s4.477,10,10,10h19.141c5.523,0,10-4.477,10-10   S226.067,358.461,220.544,358.461z" data-original="#000000" class="active-path" data-old_color="#000000" fill="#8f9dae"/>
	<path d="M271.586,358.461h-19.141c-5.523,0-10,4.477-10,10s4.477,10,10,10h19.141c5.523,0,10-4.477,10-10   S277.109,358.461,271.586,358.461z" data-original="#000000" class="active-path" data-old_color="#000000" fill="#8f9dae"/>
</g></g> </svg>
