<svg width="150" height="150" xmlns="http://www.w3.org/2000/svg"><g fill="#FFD000" fill-rule="nonzero"><path d="M75 150c-41.421 0-75-33.579-75-75S33.579 0 75 0s75 33.579 75 75c-.047 41.402-33.598 74.953-75 75zM75 6.522C37.18 6.522 6.522 37.18 6.522 75c0 37.82 30.659 68.478 68.478 68.478 37.82 0 68.478-30.659 68.478-68.478C143.435 37.198 112.802 6.565 75 6.522z"/><path d="M75.343 11.842c-35.07 0-63.5 28.43-63.5 63.501s28.43 63.501 63.5 63.501c35.071 0 63.501-28.43 63.501-63.5-.04-35.055-28.446-63.462-63.5-63.502zm32.03 46.103a1.99 1.99 0 0 1-.932 2.712L99 64.113c2.484 4.509 3.033 9.726 1.526 14.928a29.824 29.824 0 0 1-.59 1.816c-2.66 7.373-8.063 13.27-15.212 16.606-3.97 1.852-8.198 2.783-12.433 2.784-.346 0-.692-.008-1.038-.02l4.298 5.55h3.238a1.99 1.99 0 0 1 0 3.982h-8.71a1.99 1.99 0 0 1 0-3.981h.437l-4.885-6.31a29.556 29.556 0 0 1-3.388-1.015c-7.397-2.712-13.28-8.147-16.567-15.304-3.287-7.158-3.576-15.161-.812-22.537a1.99 1.99 0 0 1 2.566-1.164c9.534 3.594 18.58 1.755 24.49-.42 7.317-2.693 12.636-6.847 15.23-9.845l-.675-.487a1.99 1.99 0 1 1 2.33-3.228l1.51 1.089.037-.02c.145-.074.291-.144.438-.21l-.44-.893a1.99 1.99 0 1 1 3.57-1.761l.873 1.769c.132-.001.263 0 .395.004l.014-1.473a1.99 1.99 0 0 1 3.981.038l-.023 2.398a10 10 0 0 1 .403.202l.234-.712a1.99 1.99 0 0 1 3.782 1.243l-.745 2.264c.34.454.647.938.91 1.453l3.629 7.086zM96.193 79.507c.187-.519.359-1.048.511-1.573.37-1.278.585-2.556.65-3.818a9.718 9.718 0 0 1-7.703.505 9.735 9.735 0 0 1-5.215-4.425 9.674 9.674 0 0 1-6.374-2.662 9.68 9.68 0 0 1-2.906-5.507c-7.832 3.272-17.467 4.848-27.173 1.82a25.48 25.48 0 0 0-.645 2.78c.575.357 1.636.783 3.53.949a1.99 1.99 0 0 1-.346 3.966c-1.436-.125-2.602-.386-3.553-.72-.001.438.008.876.029 1.314.442.555 1.58 1.721 3.747 2.37A1.99 1.99 0 1 1 49.6 78.32a12.928 12.928 0 0 1-1.706-.65 25.695 25.695 0 0 0 1.4 3.818c2.841 6.186 7.927 10.883 14.32 13.227 6.35 2.328 13.25 2.023 19.427-.86 6.182-2.884 10.853-7.98 13.15-14.348zm-.92-18.051l7.615-3.538-2.685-5.244a5.93 5.93 0 0 0-3.48-2.96 5.931 5.931 0 0 0-4.555.367c-.526.27-1.102.594-1.384.954-2.291 2.924-6.448 6.377-11.76 9.172a5.712 5.712 0 0 0 1.778 4.44 5.712 5.712 0 0 0 4.633 1.53 1.99 1.99 0 0 1 2.082 1.22l.113.276a5.665 5.665 0 0 0 3.363 3.2 5.663 5.663 0 0 0 4.63-.341l1.345-.718a15.211 15.211 0 0 0-2.473-5.391 1.991 1.991 0 0 1 .778-2.967zm-.046-9.901c.524 0 1.037.211 1.408.582.371.37.583.883.583 1.407a2 2 0 0 1-.583 1.407 2.004 2.004 0 0 1-1.408.583 2.004 2.004 0 0 1-1.407-.583 2.008 2.008 0 0 1-.583-1.407c0-.524.213-1.037.583-1.407a2.004 2.004 0 0 1 1.407-.582z"/></g></svg>