<svg width="300" height="301" viewBox="0 0 300 301" fill="none" xmlns="http://www.w3.org/2000/svg">
<path d="M294.627 145.476C294.627 65.1329 229.773 0 149.775 0C69.7758 0 4.922 65.1329 4.922 145.476C4.922 225.819 69.7758 290.952 149.775 290.952C229.773 290.952 294.627 225.819 294.627 145.476Z" fill="#FFE100"/>
<path d="M6.39958 170.573H46.9133C45.6598 164.072 44.9554 157.374 44.9554 150.507C44.9554 143.639 45.6598 136.942 46.9133 130.441H6.39958C5.4953 137.003 4.99615 143.694 4.99615 150.507C4.99615 157.319 5.4953 164.012 6.39958 170.573Z" fill="#FFA800"/>
<path d="M35.3777 61.4137L64.0037 90.1629C71.721 79.122 81.4707 69.6459 92.7344 62.2664L63.9638 33.372C53.1951 41.3484 43.58 50.7994 35.3777 61.4137Z" fill="#FFA800"/>
<path d="M149.848 5.03159C143.064 5.03159 136.401 5.53826 129.868 6.44106V47.1345C136.341 45.8702 143.01 45.1628 149.848 45.1628C156.686 45.1628 163.354 45.8702 169.828 47.1345V6.44106C163.294 5.53826 156.631 5.03159 149.848 5.03159Z" fill="#FFA800"/>
<path d="M236.582 33.9845L207.871 62.819C219.049 70.3085 228.714 79.885 236.322 91.0011L264.962 62.2371C256.836 51.5624 247.29 42.0362 236.582 33.9845Z" fill="#FFA800"/>
<path d="M254.741 150.508C254.741 157.375 254.037 164.072 252.778 170.573H293.297C294.196 164.012 294.7 157.32 294.7 150.508C294.7 143.695 294.196 137.003 293.297 130.442H252.778C254.037 136.943 254.741 143.64 254.741 150.508Z" fill="#FFA800"/>
<path d="M237.711 207.864C230.364 219.176 220.929 228.973 209.934 236.724L238.56 265.468C249.124 257.231 258.535 247.579 266.482 236.759L237.711 207.864Z" fill="#FFA800"/>
<path d="M129.868 253.882V294.57C136.401 295.479 143.064 295.985 149.848 295.985C156.631 295.985 163.294 295.479 169.828 294.57V253.882C163.354 255.141 156.686 255.854 149.848 255.854C143.01 255.854 136.341 255.141 129.868 253.882Z" fill="#FFA800"/>
<path d="M62.5366 208.778L33.8256 237.613C41.8422 248.373 51.3276 257.954 61.9571 266.116L90.5979 237.352C79.5294 229.712 69.9892 220.005 62.5366 208.778Z" fill="#FFA800"/>
<path d="M149.848 260.869C89.2552 260.869 39.9592 211.361 39.9592 150.508C39.9592 89.6538 89.2546 40.1463 149.848 40.1463C210.441 40.1463 259.736 89.6538 259.736 150.508C259.736 211.361 210.44 260.869 149.848 260.869ZM149.848 50.1793C94.7642 50.1793 49.9492 95.1871 49.9492 150.508C49.9492 205.83 94.7642 250.836 149.848 250.836C204.933 250.836 249.746 205.83 249.746 150.508C249.746 95.1871 204.933 50.1793 149.848 50.1793Z" fill="black"/>
<path d="M52.9684 175.589H2.04892L1.45161 171.264C0.487838 164.278 0 157.293 0 150.508C0 143.723 0.487838 136.742 1.45102 129.753L2.04832 125.425H52.9684L51.8173 131.395C50.578 137.822 49.9492 144.252 49.9492 150.508C49.9492 156.763 50.5786 163.196 51.8173 169.618L52.9684 175.589ZM10.8139 165.557H41.0176C40.315 160.496 39.9592 155.458 39.9592 150.508C39.9592 145.557 40.3156 140.516 41.0176 135.458H10.8139C10.2678 140.536 9.98937 145.581 9.98937 150.508C9.98996 155.436 10.2678 160.481 10.8139 165.557Z" fill="black"/>
<path d="M64.6777 97.9332L28.733 61.8338L31.4328 58.3409C39.9396 47.3257 49.8879 37.5652 60.9975 29.3348L64.4558 26.7728L100.62 63.0927L95.4644 66.4679C84.6993 73.5223 75.4899 82.4625 68.0926 93.0463L64.6777 97.9332ZM42.0736 61.0451L63.4433 82.5067C69.6525 74.5512 76.8647 67.5362 84.9718 61.5643L63.517 40.0166C55.6611 46.2233 48.4714 53.2706 42.0736 61.0451Z" fill="black"/>
<path d="M174.822 53.2217L168.876 52.0584C156.096 49.5651 143.596 49.5651 130.821 52.0584L124.873 53.2217V2.06515L129.187 1.47005C143.192 -0.462808 156.52 -0.457431 170.505 1.47005L174.822 2.06515V53.2217ZM149.848 40.1464C154.779 40.1464 159.798 40.5043 164.833 41.2117V10.8786C154.667 9.77388 145.031 9.77388 134.863 10.8786V41.2117C139.897 40.5043 144.913 40.1464 149.848 40.1464Z" fill="black"/>
<path d="M235.61 98.8126L232.205 93.8428C224.913 83.1926 215.791 74.1569 205.099 66.9924L200.031 63.5975L236.107 27.3631L239.576 29.967C250.595 38.2511 260.473 48.0827 268.931 59.1911L271.589 62.6792L235.61 98.8126ZM215.591 62.1594C223.64 68.2095 230.786 75.2933 236.922 83.305L258.292 61.8433C251.931 54.0026 244.795 46.8997 237.005 40.6536L215.591 62.1594Z" fill="black"/>
<path d="M297.646 175.589H246.721L247.877 169.617C249.117 163.21 249.745 156.778 249.745 150.507C249.745 144.234 249.116 137.804 247.877 131.399L246.721 125.425H297.646L298.241 129.755C299.207 136.761 299.695 143.741 299.695 150.506C299.695 157.272 299.207 164.257 298.241 171.258L297.646 175.589ZM258.677 165.557H288.881C289.427 160.472 289.705 155.424 289.705 150.507C289.705 145.591 289.427 140.546 288.881 135.458H258.677C259.38 140.509 259.735 145.547 259.735 150.507C259.736 155.467 259.38 160.506 258.677 165.557Z" fill="black"/>
<path d="M238.146 272.146L202.196 236.046L207.064 232.617C217.591 225.195 226.498 215.946 233.527 205.12L236.892 199.947L273.052 236.262L270.501 239.735C262.32 250.875 252.603 260.869 241.624 269.432L238.146 272.146ZM217.557 237.285L238.927 258.742C246.677 252.305 253.692 245.089 259.863 237.207L238.41 215.657C232.459 223.809 225.474 231.05 217.557 237.285Z" fill="black"/>
<path d="M149.848 301C143.111 301 136.16 300.51 129.185 299.54L124.873 298.943V247.804L130.817 248.96C143.629 251.448 156.063 251.448 168.877 248.96L174.823 247.804V298.943L170.511 299.54C163.54 300.51 156.584 301 149.848 301ZM134.863 290.139C145.001 291.237 154.711 291.237 164.832 290.139V259.805C154.74 261.216 144.94 261.216 134.863 259.805V290.139Z" fill="black"/>
<path d="M62.3997 272.768L58.9242 270.103C47.8711 261.613 38.0787 251.693 29.8253 240.622L27.2326 237.139L63.3118 200.906L66.6921 205.996C73.8282 216.74 82.8229 225.9 93.4274 233.214L98.3783 236.629L62.3997 272.768ZM40.4667 238.04C46.6908 245.868 53.7638 253.036 61.5657 259.414L82.9329 237.952C74.9574 231.795 67.9046 224.622 61.8804 216.534L40.4667 238.04Z" fill="black"/>
<path d="M174.133 81.5637C173.744 81.8586 171.331 84.1779 168.743 86.7134C166.155 89.2489 163.936 91.3717 163.839 91.3913C163.741 91.4306 162.982 91.1948 162.146 90.8803C158.487 89.4651 155.198 88.8755 151.014 88.8755C148.115 88.8755 145.254 89.2096 143.269 89.7796C140.097 90.6837 136.594 92.1775 134.59 93.4748L133.461 94.202L132.761 93.6713C132.352 93.3765 131.126 92.2365 129.997 91.1358C127.059 88.2661 124.957 86.3399 124.081 85.6913C123.459 85.2392 123.128 85.141 122.252 85.141C121.26 85.141 121.143 85.1999 120.364 85.9861C119.391 86.9492 119.275 87.3424 118.613 91.3324C117.99 94.9882 117.679 100.629 117.854 105.091C117.951 108.079 118.127 109.494 118.924 114.034C119.119 115.115 119.1 115.489 118.827 116.432L118.496 117.572H116.803C113.845 117.572 110.479 116.314 106.684 113.779C102.364 110.87 99.8728 108.02 97.5376 103.322C95.2413 98.6834 93.8012 92.6296 93.8012 87.6372C93.8012 86.6348 93.7428 85.3572 93.6844 84.7872C93.5677 83.8437 93.5093 83.7651 93.0423 83.7651C92.2833 83.7651 92.0498 84.0403 90.8238 86.222C89.8702 87.9517 86.2506 96.3051 84.9273 99.8627C84.2462 101.691 83.3705 104.816 82.9618 106.86C82.4559 109.474 82.4948 115.213 83.0591 117.769C83.9543 121.896 85.6668 125.67 88.7026 130.25C91.0184 133.709 92.1276 135.124 93.665 136.559C95.3386 138.131 97.7711 139.9 98.822 140.313C99.6004 140.608 99.7366 140.608 100.204 140.352C100.982 139.9 100.943 139.193 100.048 137.208C99.6004 136.245 98.8803 134.377 98.4328 133.06C97.6933 130.839 97.6154 130.466 97.6154 128.579C97.596 126.358 97.8879 125.454 98.8998 124.51C99.6004 123.842 101.021 123.272 102.013 123.272C103.142 123.272 103.745 123.744 104.874 125.513C106.042 127.321 106.664 129.228 106.781 131.468C106.898 133.159 106.937 133.355 107.365 133.63C108.007 134.063 108.182 133.847 109.078 131.645C110.226 128.795 111.335 127.498 113.378 126.594C114.273 126.181 115.966 126.142 116.317 126.496C116.395 126.574 116.181 127.793 115.83 129.228C114.429 134.947 113.845 139.33 113.845 144.107C113.845 147.232 114.196 150.337 114.702 152.047C114.857 152.578 114.955 153.089 114.896 153.168C114.857 153.246 114.312 153.384 113.69 153.443C113.086 153.521 111.218 153.836 109.564 154.17C97.0705 156.588 88.7026 160.362 86.6009 164.568C86.2312 165.256 86.1728 165.649 86.2506 166.71L86.3479 168.027L83.1175 168.636C73.9323 170.386 67.4131 173.157 65.5838 176.086C65.1168 176.813 65 177.226 65 178.051C65 179.348 65.2724 179.899 66.4984 181.078C69.8456 184.361 77.727 186.916 89.3253 188.508C91.8163 188.862 95.3386 189.196 101.06 189.628C101.994 189.687 102.753 189.825 102.753 189.903C102.753 189.982 102.617 190.159 102.442 190.316C101.838 190.807 101.527 191.731 101.566 192.911C101.605 194.345 101.858 194.876 103.142 196.075C103.687 196.586 104.096 197.058 104.037 197.117C103.979 197.176 102.695 197.392 101.196 197.588C97.7711 198.021 96.1754 198.375 93.7428 199.259C90.2789 200.478 89.2475 201.598 90.3178 202.954C91.8163 204.861 98.3549 206.355 108.202 207.003C109.973 207.121 112.386 207.377 113.553 207.593C117.912 208.34 123.147 208.635 129.9 208.497C133.325 208.438 136.517 208.32 137.003 208.261L137.879 208.124L136.945 209.126C135.874 210.286 135.641 210.816 135.641 212.035C135.641 215.416 140.662 218.364 148.446 219.583C152.065 220.153 159.343 220.133 162.924 219.563C167.867 218.777 171.584 217.322 173.744 215.357C174.367 214.767 175.048 213.981 175.223 213.608C175.573 212.861 175.632 211.426 175.34 210.659C175.067 209.893 173.627 208.399 172.44 207.632L171.389 206.944L173.121 206.433C175.593 205.686 177.227 204.861 178.473 203.701C179.893 202.404 180.283 201.579 180.166 200.183C180.108 199.593 180.146 199.082 180.224 199.023C180.302 198.984 181.489 198.807 182.871 198.65C186.043 198.276 189.429 197.667 191.297 197.136C197.563 195.387 197.524 192.93 191.219 191.181L189.643 190.748L190.908 190.631C191.609 190.572 193.671 190.414 195.481 190.296C199.393 190.041 207.332 188.96 211.439 188.154C221.908 186.051 228.875 182.906 230.587 179.506C231.191 178.307 231.132 176.892 230.412 175.634C229.614 174.218 226.851 172.115 224.282 170.975C221.247 169.619 216.343 168.145 212.061 167.3C211.302 167.143 210.991 167.005 211.088 166.848C211.166 166.71 211.555 166.081 211.964 165.433C212.995 163.821 213.346 162.484 213.248 160.617C213.151 158.809 212.665 157.846 211.186 156.45C209.201 154.563 206.632 153.738 202.759 153.738C200.152 153.738 197.797 154.19 195.695 155.114C195.17 155.33 194.683 155.448 194.605 155.369C194.528 155.29 194.352 153.227 194.236 150.789C193.749 141.591 192.582 133.021 190.927 126.653C190.558 125.218 190.558 125.198 190.927 124.825C191.375 124.373 191.531 124.373 192.796 124.746C194.722 125.316 196.123 127.007 197.447 130.328C197.875 131.449 198.128 131.842 198.439 131.881C199.159 131.979 199.412 131.468 199.568 129.542C199.782 126.594 201.164 123.39 202.818 121.995C203.674 121.267 204.88 121.267 206.437 122.014C208.247 122.899 209.064 125.061 208.636 127.93C208.364 129.739 207.099 133.611 206.165 135.498C205.153 137.522 205.347 138.603 206.729 138.603C207.78 138.603 210.796 136.559 213.073 134.299C215.253 132.137 219.301 126.161 220.974 122.643C223.154 118.044 223.699 115.567 223.679 110.201C223.679 106.86 223.621 105.976 223.251 104.207C222.589 101.18 221.597 98.251 219.865 94.1824C219.009 92.1775 217.997 89.7993 217.627 88.8755C217.257 87.9517 216.518 86.3596 215.973 85.3375C215.428 84.3154 214.844 83.2148 214.688 82.9199C214.552 82.6251 214.202 82.232 213.929 82.0551C213.501 81.7603 213.385 81.7603 212.937 82.0158L212.431 82.291L212.412 85.9272C212.392 89.0327 212.295 89.9368 211.867 92.1579C210.037 101.14 206.145 107.489 199.84 111.734C195.364 114.742 191.453 116.118 188.475 115.685L187.308 115.508L185.751 112.442C184.875 110.752 183.649 108.59 183.027 107.627L181.859 105.877V99.4893C181.859 92.5313 181.839 92.3348 180.594 88.4431C179.971 86.4382 177.967 82.802 176.858 81.662C176.04 80.8168 175.106 80.7775 174.133 81.5637ZM177.578 86.5562C178.687 90.1137 179.368 95.7351 179.037 98.8014C178.843 100.59 178.706 101.062 178.356 101.062C178.181 101.062 178.084 99.902 178.006 96.1872C177.889 90.7427 177.636 88.6789 176.605 84.7479C176.488 84.2761 176.488 84.2761 176.799 84.6496C176.955 84.8658 177.325 85.711 177.578 86.5562ZM216.673 89.2293C219.398 95.46 220.527 98.9782 221.169 103.361C222.278 110.948 220.332 120.422 216.479 126.24C215.584 127.577 214.669 128.579 214.883 127.989C214.941 127.832 215.603 125.965 216.362 123.862C218.756 117.159 219.515 114.27 219.923 110.3C220.507 104.364 219.359 97.9169 216.304 90.271C215.486 88.2072 215.35 87.4996 215.759 87.4996C215.837 87.4996 216.245 88.2858 216.673 89.2293ZM125.852 89.1113C129.083 92.1186 129.978 92.9638 131.107 94.1431C132.78 95.8924 133.072 96.8948 131.613 95.912C130.367 95.0669 123.692 88.3841 123.848 88.1286C124.12 87.6765 124.529 87.8927 125.852 89.1113ZM155.198 91.6272C156.872 91.9613 159.052 92.8262 159.324 93.2586C159.402 93.3962 159.324 93.4158 159.071 93.3175C158.876 93.2193 157.923 92.9244 156.95 92.6689C155.451 92.2365 154.653 92.1579 151.501 92.0793C148.309 92.0006 147.453 92.04 145.313 92.4134C142.102 92.9441 139.397 93.6713 137.84 94.3789C136.536 94.9686 136.049 94.8703 136.984 94.202C138.754 92.9244 143.561 91.6862 148.485 91.2537C150.761 91.0375 152.902 91.1555 155.198 91.6272ZM93.2174 94.4772C95.4164 104.128 99.3085 111.145 105.03 115.803C107.015 117.395 109.369 118.771 111.218 119.361C113.417 120.068 113.456 120.108 112.288 120.108C107.657 120.167 101.702 115.803 97.6349 109.415C95.0856 105.386 93.1396 99.7251 92.3417 94.0448C92.0498 92.0006 92.0692 91.1555 92.439 91.5682C92.5168 91.6469 92.8671 92.9638 93.2174 94.4772ZM87.3793 100.177C86.8344 103.204 86.6009 106.133 86.6009 109.69C86.6009 117.474 87.9047 122.623 91.3687 128.481C92.6141 130.584 92.7504 131.508 91.68 130.348C89.5005 128.048 87.1847 123.292 86.309 119.361C85.1414 114.113 85.1414 107.646 86.309 102.575C86.6593 101.003 87.5739 98.0545 87.6712 98.1527C87.6907 98.1724 87.5739 99.0962 87.3793 100.177ZM172.927 112.088C174.094 112.403 175.495 113.562 176.196 114.82C176.741 115.803 176.799 116.059 176.799 117.67C176.799 119.262 176.741 119.538 176.215 120.501C174.717 123.233 171.097 124.275 168.334 122.761C163.566 120.147 164.792 112.835 170.183 111.852C171.02 111.715 171.662 111.774 172.927 112.088ZM132.722 113.68C134.356 114.191 135.972 115.901 136.439 117.651C136.945 119.538 136.283 122.034 134.921 123.37C133.734 124.55 132.663 124.943 130.776 124.943C128.927 124.943 128.226 124.687 126.923 123.547C124.626 121.562 124.412 117.729 126.475 115.351C128.032 113.582 130.328 112.953 132.722 113.68ZM184.058 116.629C187.911 124.628 189.663 133.218 190.344 147.546C190.558 151.949 190.46 157.669 190.188 157.394C190.13 157.354 189.974 155.212 189.818 152.676C189.234 142.593 188.942 138.957 188.359 134.672C187.327 127.125 185.907 122.014 183.318 116.432C182.774 115.292 182.345 114.329 182.345 114.309C182.345 114.27 182.462 114.231 182.618 114.231C182.793 114.231 183.377 115.233 184.058 116.629ZM207.021 118.751C207.527 118.987 208.267 119.498 208.675 119.891C209.454 120.658 210.524 122.486 210.174 122.486C210.076 122.486 209.979 122.388 209.979 122.289C209.979 121.896 208.325 120.265 207.352 119.715C206.573 119.262 206.145 119.145 205.153 119.145C203.46 119.145 202.039 119.891 200.482 121.601C199.276 122.938 198.926 123.056 199.373 121.955C199.743 121.09 200.949 119.793 201.942 119.203C203.83 118.103 205.25 117.965 207.021 118.751ZM192.329 121.228C193.535 121.641 194.878 122.879 195.287 123.94C195.792 125.238 195.578 125.749 195.014 124.589C194.236 122.997 192.348 121.542 190.966 121.523C190.207 121.503 190.421 121.11 191.317 120.933C191.375 120.933 191.823 121.051 192.329 121.228ZM104.174 121.955C104.932 122.348 105.847 122.958 106.158 123.311C106.489 123.665 106.567 123.803 106.353 123.626C105.672 123.076 103.959 122.289 102.714 121.975C100.34 121.346 98.4133 122.053 97.1873 123.98C95.8445 126.083 95.611 128.835 96.5256 132.058C96.7397 132.844 96.9148 133.591 96.9148 133.729C96.8954 134.259 96.117 132.942 95.7667 131.802C94.2877 127.085 95.9029 122.447 99.4447 121.287C99.7171 121.189 100.573 121.149 101.352 121.189C102.5 121.228 103.025 121.385 104.174 121.955ZM162.691 122.997C162.691 123.076 162.515 123.41 162.301 123.763C160.939 125.965 155.159 126.417 152.007 124.53C151.462 124.216 151.423 124.216 149.633 125.1C146.616 126.594 143.892 126.771 141.654 125.631C140.019 124.786 139.922 123.999 141.557 124.766C143.853 125.827 146.811 125.513 149.205 123.96C150.839 122.879 151.462 122.84 153.252 123.685C155.043 124.53 156.638 124.648 159.032 124.078C160.025 123.842 161.192 123.488 161.62 123.272C162.477 122.879 162.691 122.82 162.691 122.997ZM116.453 123.587C117.115 123.842 116.686 123.999 115.071 124.117C112.853 124.255 111.471 124.687 110.518 125.572C109.739 126.279 109.525 126.181 110.07 125.336C110.498 124.668 111.568 124.039 112.756 123.744C113.826 123.488 115.947 123.39 116.453 123.587ZM109.272 158.258C109.058 158.357 107.482 158.809 105.769 159.222C100.418 160.578 97.8879 161.639 95.6694 163.487C94.4239 164.528 93.2952 166.022 93.0812 166.907C92.8282 168.027 92.2444 168.125 92.2444 167.025C92.2444 165.393 94.4434 162.759 96.9927 161.305C99.4447 159.929 102.636 158.848 105.653 158.357C107.637 158.042 109.875 157.983 109.272 158.258ZM211.672 160.244C212.159 161.914 211.225 164.745 209.823 165.924C209.103 166.514 208.695 166.396 209.278 165.767C210.135 164.784 210.933 161.836 210.952 159.575C210.952 158.927 211.419 159.359 211.672 160.244ZM225.586 173.236C227.98 174.258 228.797 176.852 227.338 178.68C225.469 180.999 211.225 186.247 202.779 187.722C198.303 188.508 193.224 188.704 190.752 188.213C189.546 187.957 190.149 187.741 192.037 187.741C197.544 187.741 204.316 186.385 212.528 183.614C217.997 181.766 222.278 179.958 225.255 178.208L226.618 177.403L226.676 176.361C226.734 175.476 226.656 175.221 226.209 174.631C225.917 174.238 225.255 173.668 224.73 173.334C224.224 173.019 223.796 172.705 223.796 172.666C223.796 172.548 224.496 172.784 225.586 173.236ZM73.8933 178.13C75.7615 179.918 79.3228 181.196 86.9901 182.808C87.8658 182.985 87.8658 182.985 86.5036 183.004C81.0547 183.083 75.4502 181.511 73.0176 179.231C72.4144 178.661 71.9473 177.756 72.0835 177.403C72.2781 176.892 72.8425 177.127 73.8933 178.13ZM104.212 191.672C104.271 191.987 104.524 192.478 104.738 192.773C105.205 193.343 106.489 194.011 107.19 194.031C107.832 194.031 107.715 194.365 107.015 194.503C105.555 194.797 103.901 193.657 103.629 192.183C103.415 191.083 103.979 190.591 104.212 191.672ZM190.519 194.797C190.519 195.151 189.663 196.036 188.904 196.448C188.184 196.822 187.794 196.861 185.459 196.861C183.202 196.842 182.637 196.783 181.47 196.37C180.399 195.996 180.088 195.8 180.049 195.466L179.991 195.053L183.747 195.151C186.588 195.21 187.833 195.171 188.865 194.955C190.616 194.581 190.519 194.601 190.519 194.797ZM175.223 198.001C175.69 199.77 174.873 201.009 172.421 202.345C170.942 203.171 169.482 203.583 169.015 203.328C168.782 203.19 169.015 202.994 170.202 202.384C172.129 201.402 173.472 200.163 174.192 198.728C174.814 197.471 175.028 197.313 175.223 198.001ZM97.5765 201.205C100.826 202.286 104.952 202.915 112.58 203.564C117.465 203.957 126.164 204.429 131.36 204.586C137.995 204.763 137.49 204.979 129.024 205.529C123.459 205.903 120.617 205.903 114.76 205.529C105.4 204.92 98.2187 203.426 95.8056 201.579C95.2023 201.126 94.9494 200.517 95.3386 200.517C95.4359 200.517 96.4478 200.832 97.5765 201.205ZM141.868 212.173C143.834 214.079 145.819 215.18 148.485 215.868C149.847 216.222 150.878 216.32 154.342 216.379C158.078 216.458 158.779 216.438 160.628 216.064C164.792 215.219 167.303 213.784 168.198 211.74C168.412 211.249 168.431 211.269 168.49 212.114C168.704 214.806 166.602 216.595 161.795 217.833C155.588 219.406 147.959 218.62 143.697 215.946C141.323 214.453 139.26 211.819 139.747 210.895C139.844 210.699 139.98 210.541 140.058 210.541C140.117 210.541 140.934 211.288 141.868 212.173Z" fill="black"/>
<ellipse cx="131.29" cy="119.353" rx="6.29019" ry="6.3532" fill="white" fill-opacity="0.9"/>
<ellipse cx="171.29" cy="117.353" rx="6.29019" ry="6.3532" fill="white" fill-opacity="0.9"/>
</svg>
