<svg width="129" height="50" viewBox="0 0 129 50" fill="none" xmlns="http://www.w3.org/2000/svg">
<path d="M22.6945 20.0955C22.6157 20.1221 22.5329 20.1425 22.4561 20.1773C21.4892 20.5764 20.6878 21.3002 20.1869 22.2269C19.686 23.1536 19.5162 24.2265 19.7061 25.265C19.7303 25.4019 19.7546 25.5388 19.7889 25.6737C19.8233 25.8085 19.8657 25.9454 19.9122 26.0823C20.2422 26.9979 20.8371 27.7918 21.6196 28.3606C21.6862 28.4056 21.7509 28.4505 21.8216 28.4934C21.9691 28.5857 22.1215 28.6696 22.2783 28.7447C22.3874 28.7999 22.4985 28.853 22.6137 28.9C23.1539 29.1174 23.7296 29.2304 24.311 29.2331C24.3655 29.2331 24.416 29.2188 24.4686 29.2167V29.2004C25.0826 29.1723 25.6867 29.0339 26.2527 28.7917C27.3049 28.3276 28.1499 27.4861 28.625 26.4293C29.1002 25.3726 29.1717 24.1755 28.8259 23.0686C28.4801 21.9617 27.7415 21.0233 26.7522 20.4344C25.763 19.8455 24.5933 19.6476 23.4684 19.8789C23.4017 19.8932 23.337 19.9035 23.2663 19.9198C23.0722 19.9658 22.8811 20.0245 22.6945 20.0955Z" fill="#FFD833" stroke="#FFD833"/>
<path d="M42.2719 33.064C42.2719 33.336 42.1839 33.56 42.0079 33.736C41.8319 33.912 41.6079 34 41.3359 34C41.0639 34 40.8399 33.912 40.6639 33.736C40.4879 33.56 40.3999 33.336 40.3999 33.064V16.192C40.3999 15.92 40.4879 15.696 40.6639 15.52C40.8399 15.344 41.0639 15.256 41.3359 15.256H46.1359C47.3039 15.256 48.3439 15.52 49.2559 16.048C50.1839 16.56 50.9039 17.28 51.4159 18.208C51.9279 19.12 52.1839 20.168 52.1839 21.352C52.1839 22.52 51.9279 23.56 51.4159 24.472C50.9039 25.384 50.1839 26.096 49.2559 26.608C48.3439 27.12 47.3039 27.376 46.1359 27.376H42.2719V33.064ZM46.1359 25.576C46.9519 25.576 47.6799 25.4 48.3199 25.048C48.9599 24.68 49.4559 24.176 49.8079 23.536C50.1759 22.896 50.3599 22.168 50.3599 21.352C50.3599 20.52 50.1759 19.784 49.8079 19.144C49.4559 18.488 48.9599 17.976 48.3199 17.608C47.6799 17.24 46.9519 17.056 46.1359 17.056H42.2719V25.576H46.1359Z" fill="#2196F3"/>
<path d="M55.2392 21.808C55.2392 21.536 55.3272 21.312 55.5032 21.136C55.6792 20.96 55.9032 20.872 56.1752 20.872C56.4472 20.872 56.6632 20.96 56.8232 21.136C56.9992 21.312 57.0872 21.536 57.0872 21.808V33.064C57.0872 33.336 56.9992 33.56 56.8232 33.736C56.6632 33.912 56.4472 34 56.1752 34C55.9032 34 55.6792 33.912 55.5032 33.736C55.3272 33.56 55.2392 33.336 55.2392 33.064V21.808ZM56.1752 15.76C56.5272 15.76 56.8312 15.88 57.0872 16.12C57.3432 16.36 57.4712 16.672 57.4712 17.056C57.4712 17.424 57.3432 17.736 57.0872 17.992C56.8312 18.248 56.5192 18.376 56.1512 18.376C55.7832 18.376 55.4712 18.248 55.2152 17.992C54.9752 17.736 54.8552 17.424 54.8552 17.056C54.8552 16.672 54.9832 16.36 55.2392 16.12C55.4952 15.88 55.8072 15.76 56.1752 15.76Z" fill="#2196F3"/>
<path d="M67.7687 20.752C69.0167 20.752 70.1447 21.048 71.1527 21.64C72.1767 22.216 72.9767 23.016 73.5527 24.04C74.1447 25.064 74.4407 26.2 74.4407 27.448V33.088C74.4407 33.344 74.3527 33.56 74.1767 33.736C74.0007 33.912 73.7767 34 73.5047 34C73.2327 34 73.0087 33.92 72.8327 33.76C72.6567 33.584 72.5687 33.36 72.5687 33.088V31.648C72.0087 32.416 71.2967 33.024 70.4327 33.472C69.5687 33.904 68.6167 34.12 67.5767 34.12C66.3607 34.12 65.2567 33.832 64.2647 33.256C63.2887 32.664 62.5127 31.864 61.9367 30.856C61.3767 29.832 61.0967 28.696 61.0967 27.448C61.0967 26.2 61.3847 25.064 61.9607 24.04C62.5527 23.016 63.3527 22.216 64.3607 21.64C65.3847 21.048 66.5207 20.752 67.7687 20.752ZM67.7687 32.44C68.6807 32.44 69.5047 32.224 70.2407 31.792C70.9767 31.36 71.5527 30.768 71.9687 30.016C72.4007 29.248 72.6167 28.392 72.6167 27.448C72.6167 26.504 72.4007 25.656 71.9687 24.904C71.5527 24.136 70.9767 23.536 70.2407 23.104C69.5047 22.656 68.6807 22.432 67.7687 22.432C66.8567 22.432 66.0247 22.656 65.2727 23.104C64.5367 23.536 63.9527 24.136 63.5207 24.904C63.1047 25.656 62.8967 26.504 62.8967 27.448C62.8967 28.392 63.1047 29.248 63.5207 30.016C63.9527 30.768 64.5367 31.36 65.2727 31.792C66.0247 32.224 66.8567 32.44 67.7687 32.44Z" fill="#2196F3"/>
<path d="M82.5709 20.752C83.6269 20.752 84.5469 20.936 85.3309 21.304C86.1149 21.656 86.7469 22.152 87.2269 22.792C87.3549 23 87.4189 23.184 87.4189 23.344C87.4189 23.616 87.2909 23.832 87.0349 23.992C86.9229 24.072 86.7709 24.112 86.5789 24.112C86.2429 24.112 85.9629 23.992 85.7389 23.752C84.9549 22.856 83.8829 22.408 82.5229 22.408C81.6429 22.408 80.9389 22.592 80.4109 22.96C79.8829 23.312 79.6189 23.76 79.6189 24.304C79.6189 24.88 79.8669 25.344 80.3629 25.696C80.8589 26.032 81.7389 26.304 83.0029 26.512C84.7149 26.8 85.9389 27.272 86.6749 27.928C87.4109 28.568 87.7789 29.368 87.7789 30.328C87.7789 31.064 87.5549 31.72 87.1069 32.296C86.6749 32.872 86.0669 33.32 85.2829 33.64C84.4989 33.96 83.6109 34.12 82.6189 34.12C81.6269 34.12 80.6749 33.952 79.7629 33.616C78.8509 33.28 78.1149 32.808 77.5549 32.2C77.3949 32.008 77.3149 31.824 77.3149 31.648C77.3149 31.376 77.4429 31.136 77.6989 30.928C77.8909 30.784 78.0909 30.712 78.2989 30.712C78.5709 30.712 78.8029 30.824 78.9949 31.048C79.3789 31.496 79.8829 31.84 80.5069 32.08C81.1469 32.32 81.8509 32.44 82.6189 32.44C83.7389 32.44 84.5789 32.248 85.1389 31.864C85.6989 31.48 85.9869 30.976 86.0029 30.352C86.0029 29.776 85.7229 29.296 85.1629 28.912C84.6029 28.528 83.7149 28.24 82.4989 28.048C80.9309 27.792 79.7549 27.352 78.9709 26.728C78.2029 26.088 77.8189 25.32 77.8189 24.424C77.8189 23.256 78.2669 22.352 79.1629 21.712C80.0749 21.072 81.2109 20.752 82.5709 20.752Z" fill="#2196F3"/>
<path d="M96.7564 32.152C97.0124 32.152 97.2204 32.24 97.3804 32.416C97.5404 32.592 97.6204 32.816 97.6204 33.088C97.6204 33.344 97.5244 33.56 97.3324 33.736C97.1404 33.912 96.9004 34 96.6124 34H96.1084C95.2604 34 94.5004 33.8 93.8284 33.4C93.1564 32.984 92.6284 32.432 92.2444 31.744C91.8764 31.04 91.6924 30.248 91.6924 29.368V22.96H90.1324C89.8764 22.96 89.6684 22.888 89.5084 22.744C89.3644 22.584 89.2924 22.392 89.2924 22.168C89.2924 21.928 89.3644 21.736 89.5084 21.592C89.6684 21.432 89.8764 21.352 90.1324 21.352H91.6924V17.632C91.6924 17.36 91.7724 17.136 91.9324 16.96C92.1084 16.784 92.3324 16.696 92.6044 16.696C92.8764 16.696 93.1004 16.784 93.2764 16.96C93.4524 17.136 93.5404 17.36 93.5404 17.632V21.352H96.2524C96.5084 21.352 96.7084 21.432 96.8524 21.592C97.0124 21.736 97.0924 21.928 97.0924 22.168C97.0924 22.392 97.0124 22.584 96.8524 22.744C96.7084 22.888 96.5084 22.96 96.2524 22.96H93.5404V29.368C93.5404 30.184 93.7804 30.856 94.2604 31.384C94.7404 31.896 95.3564 32.152 96.1084 32.152H96.7564Z" fill="#2196F3"/>
<path d="M106.557 20.728C107.229 20.728 107.757 20.816 108.141 20.992C108.541 21.168 108.741 21.416 108.741 21.736C108.741 21.832 108.733 21.904 108.717 21.952C108.653 22.176 108.549 22.328 108.405 22.408C108.277 22.488 108.093 22.528 107.853 22.528C107.709 22.528 107.461 22.512 107.109 22.48C106.981 22.464 106.789 22.456 106.533 22.456C105.333 22.456 104.349 22.776 103.581 23.416C102.829 24.056 102.453 24.888 102.453 25.912V33.088C102.453 33.376 102.373 33.6 102.213 33.76C102.053 33.92 101.829 34 101.541 34C101.253 34 101.029 33.92 100.869 33.76C100.709 33.6 100.629 33.376 100.629 33.088V21.784C100.629 21.496 100.709 21.272 100.869 21.112C101.029 20.952 101.253 20.872 101.541 20.872C101.829 20.872 102.053 20.952 102.213 21.112C102.373 21.272 102.453 21.496 102.453 21.784V22.84C102.917 22.168 103.509 21.648 104.229 21.28C104.949 20.912 105.725 20.728 106.557 20.728Z" fill="#2196F3"/>
<path d="M112.005 21.808C112.005 21.536 112.093 21.312 112.269 21.136C112.445 20.96 112.669 20.872 112.941 20.872C113.213 20.872 113.429 20.96 113.589 21.136C113.765 21.312 113.853 21.536 113.853 21.808V33.064C113.853 33.336 113.765 33.56 113.589 33.736C113.429 33.912 113.213 34 112.941 34C112.669 34 112.445 33.912 112.269 33.736C112.093 33.56 112.005 33.336 112.005 33.064V21.808ZM112.941 15.76C113.293 15.76 113.597 15.88 113.853 16.12C114.109 16.36 114.237 16.672 114.237 17.056C114.237 17.424 114.109 17.736 113.853 17.992C113.597 18.248 113.285 18.376 112.917 18.376C112.549 18.376 112.237 18.248 111.981 17.992C111.741 17.736 111.621 17.424 111.621 17.056C111.621 16.672 111.749 16.36 112.005 16.12C112.261 15.88 112.573 15.76 112.941 15.76Z" fill="#2196F3"/>
<path d="M128.278 32.56C128.454 32.784 128.542 33 128.542 33.208C128.542 33.432 128.454 33.624 128.278 33.784C128.118 33.928 127.934 34 127.726 34C127.534 34 127.374 33.968 127.246 33.904C127.118 33.84 126.998 33.728 126.886 33.568L122.95 28.552L118.87 33.712C118.726 33.904 118.51 34 118.222 34C117.966 34 117.758 33.92 117.598 33.76C117.454 33.6 117.382 33.408 117.382 33.184C117.382 32.928 117.462 32.712 117.622 32.536L121.774 27.352L117.838 22.36C117.678 22.184 117.598 21.968 117.598 21.712C117.598 21.472 117.67 21.272 117.814 21.112C117.958 20.952 118.166 20.872 118.438 20.872C118.71 20.872 118.942 20.968 119.134 21.16L122.998 26.128L126.814 21.304C127.038 21.016 127.302 20.872 127.606 20.872C127.862 20.872 128.062 20.952 128.206 21.112C128.366 21.272 128.446 21.464 128.446 21.688C128.446 21.928 128.358 22.16 128.182 22.384L124.198 27.328L128.278 32.56Z" fill="#2196F3"/>
<mask id="mask0" mask-type="alpha" maskUnits="userSpaceOnUse" x="0" y="0" width="31" height="50">
<path d="M20.1108 19.869C18.4687 17.2481 17.5123 14.5292 17.2416 11.7122C14.8532 9.75061 11.0451 8.78755 5.81725 8.82296C5.68835 10.9651 6.0064 13.1106 6.75075 15.1204H6.69822C7.24029 16.4142 7.99598 17.6054 8.93297 18.643C8.93444 18.663 8.93985 18.6825 8.94887 18.7004C8.95789 18.7183 8.97034 18.7342 8.9855 18.7472C9.31637 19.1146 9.68179 19.4485 10.0766 19.7443C12.376 21.5261 15.1004 22.6294 18.2498 23.0544C18.5404 21.828 19.1887 20.7182 20.1108 19.869Z" fill="url(#paint0_linear)"/>
<path d="M10.0744 32.2453H10.0219C8.53339 34.5215 7.58103 37.7778 7.16479 42.0142C9.45477 42.3643 11.5669 42.2594 13.5013 41.6995C15.168 41.1947 16.7085 40.335 18.0193 39.1781V39.125L18.3305 38.8103H18.387C20.4574 36.5954 21.8382 33.8397 22.5292 30.5432C21.5826 30.2578 20.7168 29.7486 20.0035 29.0577C16.8285 31.1514 13.5188 32.2139 10.0744 32.2453Z" fill="url(#paint1_linear)"/>
<path d="M9.03599 21.06C8.69124 20.7811 8.36206 20.483 8.04995 20.1671C5.62527 20.8319 2.94195 22.3548 0 24.7359C1.20099 26.5186 2.78044 28.0076 4.62306 29.0942C6.14699 29.9745 7.85489 30.4786 9.60781 30.5654H10.0746C13.1728 30.5354 16.1363 29.5948 18.9651 27.7436C18.4234 26.8338 18.1202 25.7993 18.0841 24.7379C14.6208 24.2707 11.6048 23.0447 9.03599 21.06Z" fill="url(#paint2_linear)"/>
<path d="M27.6047 19.1864C29.2413 16.6364 30.1667 14.0047 30.3809 11.2912V11.187C30.4166 10.8558 30.4341 10.523 30.4335 10.1899C30.4119 8.25021 29.8932 6.34937 28.9281 4.67299C27.9623 2.92666 26.529 1.369 24.6284 0H24.6162C22.7115 1.36219 21.2749 2.92053 20.3064 4.67503C19.3413 6.35141 18.8226 8.25225 18.801 10.1919C18.8004 10.525 18.8179 10.8579 18.8536 11.189V11.2932C19.0597 13.91 19.9299 16.4512 21.4642 18.9167C22.4222 18.4153 23.4935 18.1765 24.5713 18.2242C25.649 18.2719 26.6956 18.6044 27.6067 19.1885L27.6047 19.1864Z" fill="url(#paint3_linear)"/>
<path d="M29.8084 37.7599V37.7068C29.4851 35.1268 28.5886 32.5965 27.119 30.116C26.2439 30.5706 25.274 30.8074 24.2902 30.8066C24.2498 30.8066 24.2094 30.8066 24.1689 30.8066C23.4119 34.4287 21.8817 37.4643 19.5782 39.9135C19.5711 39.9125 19.5638 39.9132 19.557 39.9155C19.5501 39.9178 19.5439 39.9217 19.5388 39.9268C19.5337 39.932 19.5299 39.9382 19.5276 39.9452C19.5253 39.9521 19.5247 39.9594 19.5257 39.9666C19.5267 39.9739 19.526 39.9812 19.5237 39.9881C19.5215 39.995 19.5176 40.0013 19.5125 40.0065C19.5074 40.0116 19.5012 40.0155 19.4944 40.0178C19.4876 40.0201 19.4803 40.0208 19.4731 40.0198C19.9931 42.7155 21.6028 45.7124 24.3023 49.0102C26.0368 47.7574 27.4886 46.1465 28.5617 44.2841C29.3226 42.9261 29.7999 41.4247 29.9639 39.8726C29.8992 39.7806 29.8633 39.6709 29.8609 39.558C29.9311 38.9593 29.9134 38.3534 29.8084 37.7599Z" fill="url(#paint4_linear)"/>
</mask>
<g mask="url(#mask0)">
<rect width="31" height="49" fill="url(#paint5_radial)"/>
</g>
<defs>
<linearGradient id="paint0_linear" x1="6.00006" y1="8.99994" x2="18.0001" y2="20.9999" gradientUnits="userSpaceOnUse">
<stop stop-color="#FF4081"/>
<stop offset="1" stop-color="#FFA73F"/>
</linearGradient>
<linearGradient id="paint1_linear" x1="23.0001" y1="29.0001" x2="7.00012" y2="42.0001" gradientUnits="userSpaceOnUse">
<stop stop-color="#FFA73F"/>
<stop offset="1" stop-color="#FF4081"/>
</linearGradient>
<linearGradient id="paint2_linear" x1="19" y1="27.5" x2="-2.63298e-06" y2="25" gradientUnits="userSpaceOnUse">
<stop stop-color="#FFA73F"/>
<stop offset="1" stop-color="#FF4081"/>
</linearGradient>
<linearGradient id="paint3_linear" x1="24.6172" y1="0" x2="24.6172" y2="19.1885" gradientUnits="userSpaceOnUse">
<stop stop-color="#FF4081"/>
<stop offset="1" stop-color="#FFA73F"/>
</linearGradient>
<linearGradient id="paint4_linear" x1="24.7185" y1="30.116" x2="24.7185" y2="49.0102" gradientUnits="userSpaceOnUse">
<stop stop-color="#FFA73F"/>
<stop offset="1" stop-color="#FF4081"/>
</linearGradient>
<radialGradient id="paint5_radial" cx="0" cy="0" r="1" gradientUnits="userSpaceOnUse" gradientTransform="translate(23 25) rotate(-180) scale(34 21.5102)">
<stop stop-color="#FFA73F"/>
<stop offset="0.756906" stop-color="#FF4081"/>
</radialGradient>
</defs>
</svg>