<?xml version="1.0"?>
<svg xmlns="http://www.w3.org/2000/svg" xmlns:xlink="http://www.w3.org/1999/xlink" version="1.1" id="Layer_1" x="0px" y="0px" viewBox="0 0 511.999 511.999" style="enable-background:new 0 0 511.999 511.999;" xml:space="preserve" width="512px" height="512px"><g><g>
	<g>
		<path d="M279.017,347.018h-13.123c-5.346,0-9.695-4.35-9.695-9.695c0-5.347,4.349-9.696,9.695-9.696h21.268    c0.855,0,1.55,0.695,1.55,1.551c0,4.143,3.358,7.5,7.5,7.5c4.142,0,7.5-3.357,7.5-7.5c0-9.126-7.424-16.551-16.55-16.551h-7.207    v-13.011c0-4.143-3.358-7.5-7.5-7.5c-4.142,0-7.5,3.357-7.5,7.5v13.035c-13.183,0.496-23.757,11.37-23.757,24.672    c0,13.617,11.078,24.695,24.695,24.695h13.123c5.346,0,9.695,4.35,9.695,9.695c0,5.345-4.349,9.695-9.695,9.695h-21.268    c-0.855,0-1.55-0.695-1.55-1.55c0-4.143-3.358-7.5-7.5-7.5c-4.142,0-7.5,3.357-7.5,7.5c0,9.126,7.424,16.55,16.55,16.55h7.207    v13.012c0,4.143,3.358,7.5,7.5,7.5c4.142,0,7.5-3.357,7.5-7.5v-13.036c13.183-0.496,23.757-11.369,23.757-24.671    C303.712,358.096,292.634,347.018,279.017,347.018z" data-original="#000000" class="active-path" data-old_color="#000000" fill="#8f9dae"/>
	</g>
</g><g>
	<g>
		<path d="M372.776,163.493h-12.179c-4.664,0-8.458-3.795-8.458-8.459s3.794-8.458,8.458-8.458h19.739    c0.496,0,0.899,0.403,0.899,0.899c0,4.143,3.358,7.5,7.5,7.5c4.142,0,7.5-3.357,7.5-7.5c0-8.767-7.132-15.899-15.899-15.899    h-6.149v-11.536c0-4.143-3.358-7.5-7.5-7.5c-4.142,0-7.5,3.357-7.5,7.5v11.582c-12.281,0.732-22.048,10.951-22.048,23.413    c0,12.936,10.523,23.459,23.458,23.459h12.179c4.664,0,8.459,3.795,8.459,8.459s-3.795,8.458-8.459,8.458h-19.738    c-0.496,0-0.899-0.403-0.899-0.899c0-4.143-3.358-7.5-7.5-7.5c-4.142,0-7.5,3.357-7.5,7.5c0,8.767,7.132,15.899,15.899,15.899    h6.149v11.536c0,4.143,3.358,7.5,7.5,7.5c4.142,0,7.5-3.357,7.5-7.5v-11.583c12.281-0.732,22.048-10.951,22.048-23.413    C396.235,174.016,385.712,163.493,372.776,163.493z" data-original="#000000" class="active-path" data-old_color="#000000" fill="#8f9dae"/>
	</g>
</g><g>
	<g>
		<path
      d="M511.994,169.382c-0.013-20.226-4.167-39.5-11.654-57.024c-0.026-0.066-0.045-0.134-0.074-0.2    c-0.041-0.095-0.091-0.183-0.135-0.276c-7.232-16.761-17.518-31.904-30.154-44.728c-0.214-0.287-0.443-0.566-0.704-0.827    c-0.261-0.26-0.54-0.49-0.827-0.704C454.853,52.226,438.651,41.473,420.68,34.2c-0.077-0.034-0.15-0.074-0.229-0.106    c-0.06-0.024-0.121-0.04-0.181-0.062c-16.711-6.704-34.937-10.406-54.011-10.423c-0.044-0.001-0.086-0.007-0.13-0.007    c-0.042,0-0.083,0.006-0.124,0.006c-33.477,0.027-65.685,11.486-91.551,32.414c-2.172-2.475-4.419-4.88-6.74-7.21    c-0.125-0.146-0.25-0.291-0.387-0.429c-0.112-0.112-0.232-0.212-0.349-0.315c-18.45-18.285-41.364-31.942-66.224-39.235    c-3.976-1.167-8.142,1.11-9.308,5.085c-1.166,3.975,1.111,8.142,5.085,9.308c1.945,0.571,3.87,1.184,5.775,1.834l-12.143,30.264    c-8.301-2.691-17.033-4.412-26.065-5.028V17.721c1.308,0.068,2.614,0.147,3.911,0.251c4.135,0.325,7.743-2.753,8.072-6.881    c0.329-4.13-2.752-7.743-6.881-8.072c-4.168-0.332-8.408-0.5-12.602-0.5c-21.783,0-42.539,4.476-61.404,12.548    c-0.042,0.017-0.085,0.029-0.126,0.047c-0.06,0.025-0.114,0.058-0.173,0.084c-18.069,7.777-34.39,18.859-48.202,32.483    c-0.286,0.214-0.565,0.443-0.825,0.703c-0.26,0.26-0.489,0.54-0.703,0.826c-14.445,14.641-26.03,32.103-33.85,51.477    c-0.016,0.038-0.036,0.074-0.052,0.112c-0.012,0.029-0.019,0.059-0.03,0.088C3.994,118.895,0,138.546,0,159.114    c0,21.782,4.476,42.538,12.547,61.402c0.017,0.042,0.029,0.086,0.047,0.128c0.016,0.038,0.04,0.071,0.057,0.109    c7.778,18.094,18.871,34.437,32.511,48.265c0.214,0.286,0.443,0.566,0.703,0.826s0.539,0.489,0.825,0.703    c14.64,14.441,32.101,26.026,51.474,33.846c0.039,0.016,0.075,0.037,0.115,0.053c0.031,0.013,0.063,0.021,0.095,0.033    c7.218,2.901,14.698,5.282,22.398,7.091c-3.661,13.395-5.519,27.251-5.519,41.306c0,26.39,6.689,52.482,19.345,75.458    c1.367,2.481,3.931,3.883,6.576,3.883c1.223,0,2.464-0.3,3.612-0.932c3.628-1.998,4.949-6.56,2.951-10.188    c-1.043-1.893-2.025-3.818-2.978-5.756l29.98-12.81c4.072,7.93,9.089,15.297,14.899,21.957l-23.069,23.069    c-1.073-1.192-2.134-2.398-3.17-3.631c-2.665-3.173-7.396-3.583-10.567-0.916c-3.171,2.664-3.582,7.396-0.917,10.566    c2.936,3.494,6.011,6.835,9.205,10.031c0.001,0.001,0.002,0.002,0.003,0.003c0.001,0.001,0.003,0.002,0.004,0.004    c29.281,29.298,68.927,45.867,110.731,45.867c21.821,0,42.61-4.493,61.5-12.592c0.008-0.003,0.016-0.005,0.024-0.009    c0.011-0.005,0.022-0.011,0.033-0.016c18.136-7.785,34.515-18.9,48.368-32.571c0.277-0.209,0.546-0.431,0.799-0.683    c0.252-0.252,0.475-0.522,0.684-0.8c14.471-14.666,26.076-32.163,33.9-51.578c0.005-0.013,0.013-0.024,0.018-0.038    c0.006-0.016,0.01-0.032,0.017-0.048c7.25-18.021,11.25-37.687,11.25-58.271c0-16.506-2.548-32.684-7.575-48.199    c0.838-0.341,1.675-0.685,2.505-1.041c0.021-0.009,0.042-0.014,0.063-0.023c0.03-0.013,0.057-0.029,0.087-0.043    c16.854-7.243,32.076-17.573,44.957-30.276c0.272-0.206,0.538-0.426,0.786-0.674c0.249-0.249,0.468-0.515,0.675-0.787    c13.449-13.64,24.236-29.906,31.516-47.952c0.013-0.028,0.031-0.053,0.043-0.083c0.014-0.036,0.023-0.073,0.037-0.109    c6.726-16.743,10.44-35.008,10.45-54.125c0-0.03,0.004-0.059,0.004-0.089C511.999,169.442,511.995,169.412,511.994,169.382z     M483.305,111.25L456.5,122.703c-3.679-7.079-8.162-13.675-13.332-19.662l20.6-20.6    C471.488,91.093,478.078,100.775,483.305,111.25z M421.737,51.028c11.483,5.413,22.055,12.447,31.423,20.806l-20.6,20.6    c-6.553-5.658-13.835-10.493-21.68-14.35L421.737,51.028z M373.628,38.827c11.888,0.675,23.358,2.94,34.197,6.593l-10.859,27.061    c-7.447-2.373-15.262-3.913-23.338-4.504V38.827z M366.124,82.7c47.844,0,86.769,38.918,86.779,86.76    c0,0.005-0.001,0.01-0.001,0.014c0,0.006,0.001,0.011,0.001,0.016c-0.005,47.838-38.932,86.755-86.778,86.755    c-25.989,0-50.776-11.839-67.176-31.868c3.111-6.747,5.744-13.712,7.849-20.84c1.173-3.973-1.096-8.144-5.069-9.317    c-3.975-1.175-8.144,1.097-9.317,5.069c-0.55,1.862-1.137,3.707-1.761,5.534l-30.266-12.144    c2.691-8.301,4.412-17.033,5.028-26.065h32.579c-0.134,2.566-0.334,5.124-0.604,7.655c-0.438,4.119,2.546,7.813,6.665,8.251    c0.27,0.028,0.537,0.043,0.802,0.043c3.786,0,7.04-2.858,7.449-6.708c0.587-5.521,0.885-11.154,0.885-16.741    c0-17.609-2.872-34.752-8.445-50.963C320.957,91.925,343.079,82.7,366.124,82.7z M373.628,300.129v-29.162    c8.855-0.648,17.397-2.435,25.484-5.212l11.459,26.818C398.93,296.79,386.526,299.397,373.628,300.129z M413.249,345.379h-32.57    c-0.698-10.425-2.857-20.547-6.454-30.258c11.206-0.616,22.079-2.504,32.477-5.52    C410.421,321.173,412.613,333.156,413.249,345.379z M358.628,270.954v29.172c-11.71-0.677-23.202-2.934-34.183-6.632    l10.865-27.077C342.833,268.82,350.657,270.358,358.628,270.954z M238.812,230.723c6.334-7.264,11.724-15.37,15.976-24.127    l30.257,12.14c-6.009,12.875-13.889,24.633-23.247,34.973L238.812,230.723z M251.161,264.285    c-9.673,8.663-20.503,16-32.169,21.768l-12.745-29.828c7.93-4.071,15.298-9.087,21.958-14.896L251.161,264.285z M291.474,238.617    c8.568,9.227,18.745,16.728,29.92,22.204l-10.87,27.091c-13.389-6.287-25.73-14.833-36.398-25.371    C280.642,255.121,286.454,247.099,291.474,238.617z M259.648,123.351l29.831-12.839c4.808,13.027,7.738,26.856,8.503,41.102    h-32.568C264.743,141.781,262.764,132.302,259.648,123.351z M358.628,38.83v29.154c-8.534,0.633-16.901,2.342-24.916,5.04    l-11.913-26.698C333.57,42.09,345.963,39.551,358.628,38.83z M307.998,52.208l11.881,26.626    c-7.59,3.872-14.703,8.705-21.151,14.401c-4.128-8.871-9.116-17.392-14.939-25.476C291.312,61.663,299.432,56.458,307.998,52.208z     M283.551,96.734l-29.795,12.824c-4.08-7.967-9.113-15.366-14.944-22.053l22.961-22.962    C270.443,74.221,277.782,85.057,283.551,96.734z M216.218,30.664c12.878,6.009,24.637,13.887,34.978,23.242l-22.991,22.99    c-7.263-6.334-15.37-11.725-24.128-15.977L216.218,30.664z M250.677,159.114c0,51.877-42.205,94.081-94.082,94.081    c-51.877,0-94.082-42.204-94.082-94.081s42.205-94.082,94.082-94.082C208.472,65.031,250.677,107.236,250.677,159.114z     M149.096,17.718v32.578c-9.87,0.673-19.382,2.664-28.363,5.8l-12.801-29.96C120.879,21.382,134.706,18.473,149.096,17.718z     M94.149,32.056l12.795,29.945c-7.93,4.071-15.298,9.087-21.958,14.896l-23.019-23.02C71.596,45.21,82.416,37.846,94.149,32.056z     M51.36,64.484l23.019,23.02c-6.334,7.263-11.724,15.369-15.976,24.127L28.178,99.503C34.157,86.676,41.999,74.885,51.36,64.484z     M22.569,113.416l30.236,12.132c-2.691,8.301-4.412,17.033-5.028,26.065H15.199C15.896,138.317,18.437,125.502,22.569,113.416z     M15.199,166.614h32.578c0.674,9.869,2.665,19.381,5.801,28.362l-29.96,12.802C18.864,194.831,15.954,181.003,15.199,166.614z     M29.538,221.559l29.945-12.795c4.071,7.931,9.088,15.298,14.896,21.959l-23.02,23.02    C42.693,244.114,35.328,233.292,29.538,221.559z M96.986,287.53c-12.829-5.978-24.619-13.82-35.019-23.181l23.02-23.02    c7.263,6.334,15.369,11.724,24.127,15.976L96.986,287.53z M110.897,293.139l12.133-30.236c8.301,2.691,17.033,4.412,26.066,5.028    v32.579C135.799,299.813,122.983,297.271,110.897,293.139z M138.865,401.548c-4.81-13.179-7.65-27.078-8.398-41.169h32.561    c0.674,9.87,2.667,19.383,5.803,28.365L138.865,401.548z M163.035,345.379h-32.562c0.551-10.57,2.255-20.978,5.116-31.083    c6.873,0.925,13.884,1.413,21.007,1.413c4.322,0,8.615-0.173,12.874-0.516C165.923,324.861,163.748,335.052,163.035,345.379z     M164.096,300.5v-32.568c9.869-0.674,19.381-2.665,28.362-5.801l12.756,29.853C192.181,296.798,178.345,299.733,164.096,300.5z     M212.316,481.379c-12.732-5.901-24.584-13.701-35.146-23.209l23.076-23.076c7.393,6.446,15.658,11.914,24.595,16.199    L212.316,481.379z M264.353,494.279c-13.107-0.69-25.917-3.177-38.111-7.321l12.544-30.132c8.152,2.599,16.716,4.262,25.567,4.866    V494.279z M177.767,352.971c0-0.031,0.005-0.061,0.005-0.092s-0.004-0.061-0.005-0.091c0.012-14.032,3.016-27.451,8.922-39.951    c23.299-4.509,45.203-14.274,64.477-28.898c4.369-3.315,8.55-6.864,12.536-10.614c13.702,13.503,29.87,24.064,47.444,31.224    c0.214,0.11,0.433,0.213,0.661,0.305c0.246,0.099,0.494,0.181,0.744,0.252c14.438,5.709,29.794,9.136,45.497,10.014    c5.226,11.875,7.884,24.536,7.891,37.706c0,0.018-0.003,0.036-0.003,0.054c0,0.018,0.003,0.035,0.003,0.053    c-0.031,51.85-42.223,94.023-94.079,94.023C220.008,446.955,177.819,404.803,177.767,352.971z M279.353,494.282v-32.589h0    c9.869-0.673,19.38-2.664,28.361-5.799l12.805,29.97C307.572,490.617,293.743,493.528,279.353,494.282z M334.302,479.942    l-12.798-29.953c7.93-4.071,15.298-9.086,21.958-14.894l23.024,23.024C356.856,466.786,346.035,474.152,334.302,479.942z     M377.092,447.511l-23.023-23.023c6.335-7.263,11.725-15.369,15.978-24.126l30.226,12.128    C394.294,425.319,386.453,437.11,377.092,447.511z M405.881,398.577l-30.236-12.132c2.691-8.301,4.413-17.034,5.03-26.066h32.577    C412.554,373.676,410.013,386.492,405.881,398.577z M424.356,286.657l-11.457-26.814c7.079-3.678,13.675-8.16,19.662-13.33    l20.605,20.605C444.513,274.839,434.832,281.429,424.356,286.657z M463.772,256.51l-20.604-20.604    c5.659-6.553,10.494-13.834,14.352-21.68l27.057,10.857C479.165,236.568,472.132,247.141,463.772,256.51z M490.185,211.172    l-27.061-10.86c2.373-7.448,3.913-15.263,4.503-23.338h29.149C496.101,188.864,493.837,200.333,490.185,211.172z M467.627,161.974    c-0.649-8.855-2.435-17.399-5.214-25.486l26.808-11.455c4.216,11.641,6.822,24.044,7.555,36.941H467.627z"
      data-original="#000000" class="active-path" data-old_color="#000000" fill="#8f9dae"/>
	</g>
</g><g>
	<g>
		<path d="M163.759,153.253h-13.123c-5.346,0-9.695-4.35-9.695-9.696s4.349-9.695,9.695-9.695h21.268c0.855,0,1.55,0.695,1.55,1.551    c0,4.143,3.358,7.5,7.5,7.5c4.142,0,7.5-3.357,7.5-7.5c0-9.126-7.424-16.551-16.55-16.551h-7.207v-13.011    c0-4.143-3.358-7.5-7.5-7.5c-4.142,0-7.5,3.357-7.5,7.5v13.035c-13.183,0.496-23.757,11.37-23.757,24.672    c0,13.617,11.078,24.695,24.695,24.695h13.123c5.346,0,9.695,4.35,9.695,9.695c0,5.345-4.349,9.695-9.695,9.695H142.49    c-0.855,0-1.55-0.695-1.55-1.55c0-4.143-3.358-7.5-7.5-7.5c-4.142,0-7.5,3.357-7.5,7.5c0,9.126,7.424,16.55,16.55,16.55h7.207    v13.012c0,4.143,3.358,7.5,7.5,7.5c4.142,0,7.5-3.357,7.5-7.5v-13.036c13.183-0.496,23.757-11.369,23.757-24.671    C188.454,164.331,177.376,153.253,163.759,153.253z" data-original="#000000" class="active-path" data-old_color="#000000" fill="#8f9dae"/>
	</g>
</g></g> </svg>
