<svg width="150" height="150" xmlns="http://www.w3.org/2000/svg"><g fill="#4986F5" fill-rule="nonzero"><path d="M75 150a75 75 0 1 1 75-75 75.09 75.09 0 0 1-75 75zM75 6.52A68.48 68.48 0 1 0 143.48 75 68.56 68.56 0 0 0 75 6.52z"/><path d="M75.34 11.84a63.5 63.5 0 1 0 63.5 63.5 63.57 63.57 0 0 0-63.5-63.5zm25.9 59.26a44.69 44.69 0 0 1 .92 15.36 28.6 28.6 0 0 1-4.07 11.81 23.36 23.36 0 0 1-7.24 7.22c-5.96 3.79-12.36 4.35-15.65 4.35-3.28 0-9.68-.56-15.65-4.35a23.36 23.36 0 0 1-7.24-7.22 28.6 28.6 0 0 1-4.07-11.81c-.6-4.72-.29-10.03.92-15.36a52.42 52.42 0 0 1 6.31-15.6c2.74-4.47 5.19-7.43 7.94-9.6a18.39 18.39 0 0 1 11.8-4.06c10.01 0 15.59 6.9 19.72 13.66a52.41 52.41 0 0 1 6.31 15.6zm-3.48 14.79c1.14-8.8-1.4-19.57-6.61-28.08-2.42-3.94-4.6-6.62-6.9-8.42a14.1 14.1 0 0 0-9.05-3.11 14.1 14.1 0 0 0-9.04 3.1c-2.3 1.81-4.5 4.49-6.9 8.43-5.22 8.51-7.75 19.27-6.62 28.08.93 7.2 4.05 12.53 9.29 15.85 5.2 3.31 11.02 3.67 13.27 3.67 2.26 0 8.07-.36 13.28-3.67 5.23-3.32 8.35-8.66 9.28-15.85zm-9.82-24.47c5.18 6.49 7.74 21.26 3.24 28.62l-3.78-2.32c3.41-5.58 1.17-18.4-2.93-23.53l3.47-2.77z"/></g></svg>