<svg width="300" height="301" viewBox="0 0 300 301" fill="none" xmlns="http://www.w3.org/2000/svg">
<path d="M294.627 145.476C294.627 65.1329 229.773 0 149.775 0C69.7758 0 4.922 65.1329 4.922 145.476C4.922 225.819 69.7758 290.952 149.775 290.952C229.773 290.952 294.627 225.819 294.627 145.476Z" fill="#FFE100"/>
<path d="M6.39958 170.573H46.9133C45.6598 164.072 44.9554 157.374 44.9554 150.507C44.9554 143.639 45.6598 136.942 46.9133 130.441H6.39958C5.4953 137.003 4.99615 143.694 4.99615 150.507C4.99615 157.319 5.4953 164.012 6.39958 170.573Z" fill="#FFA800"/>
<path d="M35.3777 61.4137L64.0037 90.1629C71.721 79.122 81.4707 69.6459 92.7344 62.2664L63.9638 33.372C53.1951 41.3484 43.58 50.7994 35.3777 61.4137Z" fill="#FFA800"/>
<path d="M149.848 5.03159C143.064 5.03159 136.401 5.53825 129.868 6.44105V47.1345C136.341 45.8702 143.01 45.1628 149.848 45.1628C156.686 45.1628 163.354 45.8702 169.828 47.1345V6.44105C163.294 5.53825 156.631 5.03159 149.848 5.03159Z" fill="#FFA800"/>
<path d="M236.582 33.9844L207.871 62.819C219.049 70.3085 228.714 79.8849 236.322 91.0011L264.962 62.2371C256.836 51.5624 247.29 42.0361 236.582 33.9844Z" fill="#FFA800"/>
<path d="M254.741 150.508C254.741 157.375 254.037 164.072 252.778 170.573H293.297C294.196 164.012 294.7 157.32 294.7 150.508C294.7 143.695 294.196 137.003 293.297 130.442H252.778C254.037 136.943 254.741 143.64 254.741 150.508Z" fill="#FFA800"/>
<path d="M237.711 207.864C230.364 219.176 220.929 228.973 209.934 236.724L238.56 265.468C249.124 257.231 258.535 247.579 266.482 236.759L237.711 207.864Z" fill="#FFA800"/>
<path d="M129.868 253.882V294.57C136.401 295.479 143.064 295.985 149.848 295.985C156.631 295.985 163.294 295.479 169.828 294.57V253.882C163.354 255.141 156.686 255.854 149.848 255.854C143.01 255.853 136.341 255.141 129.868 253.882Z" fill="#FFA800"/>
<path d="M62.5366 208.778L33.8256 237.613C41.8422 248.373 51.3276 257.954 61.9571 266.116L90.5979 237.352C79.5294 229.712 69.9892 220.005 62.5366 208.778Z" fill="#FFA800"/>
<path d="M149.848 260.869C89.2552 260.869 39.9592 211.361 39.9592 150.508C39.9592 89.6538 89.2546 40.1463 149.848 40.1463C210.441 40.1463 259.736 89.6538 259.736 150.508C259.736 211.361 210.44 260.869 149.848 260.869ZM149.848 50.1792C94.7642 50.1792 49.9492 95.1871 49.9492 150.508C49.9492 205.83 94.7642 250.836 149.848 250.836C204.933 250.836 249.746 205.83 249.746 150.508C249.746 95.1871 204.933 50.1792 149.848 50.1792Z" fill="black"/>
<path d="M52.9684 175.589H2.04892L1.45161 171.264C0.487838 164.278 0 157.293 0 150.508C0 143.723 0.487838 136.742 1.45102 129.753L2.04832 125.425H52.9684L51.8173 131.395C50.578 137.822 49.9492 144.252 49.9492 150.508C49.9492 156.763 50.5786 163.196 51.8173 169.618L52.9684 175.589ZM10.8139 165.557H41.0176C40.315 160.496 39.9592 155.458 39.9592 150.508C39.9592 145.557 40.3156 140.516 41.0176 135.458H10.8139C10.2678 140.536 9.98937 145.581 9.98937 150.508C9.98996 155.436 10.2678 160.481 10.8139 165.557Z" fill="black"/>
<path d="M64.6777 97.9332L28.733 61.8338L31.4328 58.3409C39.9396 47.3257 49.8879 37.5652 60.9975 29.3348L64.4558 26.7728L100.62 63.0927L95.4644 66.4679C84.6993 73.5224 75.4899 82.4625 68.0926 93.0463L64.6777 97.9332ZM42.0736 61.0451L63.4433 82.5067C69.6525 74.5512 76.8648 67.5362 84.9718 61.5643L63.517 40.0167C55.6611 46.2233 48.4714 53.2706 42.0736 61.0451Z" fill="black"/>
<path d="M174.822 53.2217L168.876 52.0584C156.096 49.5651 143.596 49.5651 130.821 52.0584L124.873 53.2217V2.06515L129.187 1.47006C143.192 -0.4628 156.52 -0.457423 170.505 1.47006L174.822 2.06515V53.2217ZM149.848 40.1464C154.779 40.1464 159.798 40.5043 164.833 41.2117V10.8786C154.667 9.77389 145.031 9.77389 134.863 10.8786V41.2117C139.897 40.5043 144.913 40.1464 149.848 40.1464Z" fill="black"/>
<path d="M235.61 98.8126L232.205 93.8428C224.913 83.1926 215.791 74.1569 205.099 66.9924L200.031 63.5975L236.107 27.3631L239.576 29.967C250.595 38.2511 260.473 48.0827 268.931 59.1911L271.589 62.6792L235.61 98.8126ZM215.591 62.1594C223.64 68.2095 230.786 75.2933 236.922 83.3049L258.292 61.8433C251.931 54.0025 244.795 46.8997 237.005 40.6536L215.591 62.1594Z" fill="black"/>
<path d="M297.646 175.589H246.721L247.877 169.617C249.117 163.21 249.745 156.778 249.745 150.507C249.745 144.234 249.116 137.804 247.877 131.399L246.721 125.425H297.646L298.241 129.755C299.207 136.761 299.695 143.741 299.695 150.506C299.695 157.272 299.207 164.257 298.241 171.258L297.646 175.589ZM258.677 165.557H288.881C289.427 160.472 289.705 155.424 289.705 150.508C289.705 145.591 289.427 140.546 288.881 135.458H258.677C259.38 140.509 259.735 145.547 259.735 150.508C259.736 155.467 259.38 160.506 258.677 165.557Z" fill="black"/>
<path d="M238.146 272.146L202.196 236.046L207.064 232.617C217.591 225.195 226.498 215.946 233.527 205.12L236.892 199.947L273.052 236.262L270.501 239.735C262.32 250.875 252.603 260.869 241.624 269.432L238.146 272.146ZM217.557 237.285L238.927 258.742C246.677 252.305 253.692 245.089 259.863 237.207L238.41 215.657C232.459 223.809 225.474 231.05 217.557 237.285Z" fill="black"/>
<path d="M149.848 301C143.111 301 136.16 300.51 129.185 299.54L124.873 298.943V247.804L130.817 248.96C143.629 251.448 156.063 251.448 168.877 248.96L174.823 247.804V298.943L170.511 299.54C163.54 300.51 156.584 301 149.848 301ZM134.863 290.139C145.001 291.237 154.711 291.237 164.832 290.139V259.805C154.74 261.216 144.94 261.216 134.863 259.805V290.139V290.139Z" fill="black"/>
<path d="M62.3997 272.768L58.9242 270.103C47.8711 261.613 38.0787 251.693 29.8253 240.622L27.2326 237.139L63.3118 200.906L66.6921 205.996C73.8282 216.74 82.8229 225.9 93.4274 233.214L98.3783 236.629L62.3997 272.768ZM40.4667 238.04C46.6908 245.868 53.7638 253.036 61.5657 259.414L82.9329 237.952C74.9574 231.795 67.9046 224.622 61.8804 216.534L40.4667 238.04Z" fill="black"/>
<path d="M126.926 103.592C114.743 114.939 103.236 126.212 101.356 128.617C93.2338 138.838 90.0752 146.353 90 155.972C90 162.961 91.4289 168.297 95.0388 174.309C98.9495 180.847 103.311 184.905 109.629 188.062C114.968 190.692 115.57 190.842 122.79 190.842C127.001 190.842 131.739 190.542 133.319 190.166L136.252 189.49L135.725 191.669C135.424 192.872 134.522 194.525 133.695 195.427C132.566 196.629 132.266 198.057 132.266 201.965V207H149.187H166.108V201.815C166.108 198.207 165.807 196.554 165.131 196.253C164.003 195.802 161.22 190.542 161.822 190.016C162.047 189.79 163.626 190.016 165.356 190.467C167.086 190.918 171.147 191.293 174.306 191.293C184.158 191.293 191.001 188.212 198.071 180.547C212.059 165.516 211.232 145.827 195.815 127.941C191.528 122.83 186.79 118.321 159.265 92.5442L148.961 83L126.926 103.592Z" fill="black"/>
</svg>
