<svg width="90" height="47" viewBox="0 0 90 47" fill="none" xmlns="http://www.w3.org/2000/svg">
<g clip-path="url(#clip0)">
<path d="M13.3828 11.0071C13.3828 7.50738 14.9881 4.40282 17.4792 2.38486C15.6386 0.889031 13.3136 0 10.7948 0C4.82997 0 0 4.92495 0 11.0071C0 17.0892 4.82997 22.0141 10.7948 22.0141C13.3274 22.0141 15.6524 21.1251 17.4931 19.6434C14.9881 17.6113 13.3828 14.4926 13.3828 11.0071Z" fill="#E30D17"/>
<path d="M13.3828 11.0072C13.3828 14.5069 14.9882 17.6114 17.4793 19.6294C19.9704 17.6114 21.5758 14.5069 21.5758 11.0072C21.5758 7.50752 19.9704 4.40297 17.4793 2.38501C14.9882 4.38886 13.3828 7.50752 13.3828 11.0072Z" fill="#EB610A"/>
<path d="M34.2388 16.9481V16.6235H34.1143V16.5388H34.4602V16.6235H34.3218V16.9481H34.2388ZM34.9031 16.9481V16.6658L34.8062 16.9057H34.7094L34.6125 16.6658V16.9481H34.5156V16.5388H34.654L34.7509 16.8069L34.8478 16.5388H34.9861V16.9481H34.9031Z" fill="#F69F00"/>
<path d="M24.1778 0C21.6452 0 19.3201 0.889031 17.4795 2.37075C19.9706 4.38871 21.576 7.49327 21.576 10.9929C21.576 14.4926 19.9706 17.5972 17.4795 19.6151C19.3201 21.0969 21.6452 21.9859 24.1778 21.9859C30.1426 21.9859 34.9726 17.0609 34.9726 10.9788C34.9726 4.89673 30.1288 0 24.1778 0Z" fill="#F69F00"/>
</g>
<g clip-path="url(#clip1)">
<path d="M62.2341 17.7826H58.25L60.7554 4.25293H64.7395L62.2341 17.7826Z" fill="white"/>
<path d="M54.8826 4.25297L51.0629 13.5501L50.6111 11.5605L49.2557 5.44677C49.2557 5.44677 49.0914 4.2168 47.3663 4.2168H41.0821L41 4.47003C41 4.47003 42.9304 4.83178 45.1894 6.02558L48.6806 17.7827H52.829L59.1953 4.25297H54.8826Z" fill="white"/>
<path d="M86.3028 17.7826H89.9582L86.7546 4.25293H83.5509C82.0722 4.25293 81.7026 5.26585 81.7026 5.26585L75.7881 17.7826H79.9365L80.7579 15.7568H85.851L86.3028 17.7826ZM81.908 12.9713L84.0027 7.90668L85.1938 12.9713H81.908Z" fill="white"/>
<path d="M76.0764 7.509L76.6514 4.61494C76.6514 4.61494 74.8853 4.03613 73.037 4.03613C71.0655 4.03613 66.3421 4.79582 66.3421 8.52192C66.3421 12.031 71.887 12.0671 71.887 13.9121C71.887 15.7571 66.9172 15.4315 65.2742 14.2739L64.6992 17.3126C64.6992 17.3126 66.4654 18.0723 69.2172 18.0723C71.928 18.0723 76.0764 16.8423 76.0764 13.4418C76.0764 9.93277 70.4905 9.60719 70.4905 8.05164C70.4905 6.45991 74.3924 6.67696 76.0764 7.509Z" fill="white"/>
<path d="M50.6111 11.5243L49.2557 5.44677C49.2557 5.44677 49.0914 4.2168 47.3663 4.2168H41.0821L41 4.47003C41 4.47003 44.0394 5.01266 46.9145 7.11085C49.7075 9.06434 50.6111 11.5243 50.6111 11.5243Z" fill="#F7A823"/>
</g>
<path fill-rule="evenodd" clip-rule="evenodd" d="M21.6915 30.0609C22.1711 30.058 23.5963 29.9247 24.2 32.0402C24.6067 33.4652 25.2545 35.7994 26.1434 39.0428H26.5054C27.4587 35.6233 28.1136 33.2891 28.47 32.0402C29.08 29.9027 30.605 30.061 31.215 30.061L35.9213 30.061V45.261H31.1246V36.3034H30.8029L28.1289 45.261H24.52L21.846 36.2967H21.5243V45.261H16.7275V30.061L21.6915 30.0609ZM42.8094 30.061V39.0253H43.1921L46.4447 31.654C47.0761 30.1871 48.4218 30.061 48.4218 30.061H53.0637V45.261H48.1667V36.2967H47.7841L44.5952 43.668C43.9638 45.1282 42.5543 45.261 42.5543 45.261H37.9125V30.061H42.8094ZM69.9898 37.2841C69.3067 39.2938 67.1616 40.7331 64.7866 40.7331H59.6512V45.261H54.9945V37.2841H69.9898Z" fill="#67C09E"/>
<path fill-rule="evenodd" clip-rule="evenodd" d="M65.0109 30.061H54.75C54.9942 33.4451 57.8011 36.342 60.7068 36.342H70.3131C70.8674 33.5295 68.959 30.061 65.0109 30.061Z" fill="url(#paint0_linear)"/>
<defs>
<linearGradient id="paint0_linear" x1="70.4073" y1="34.012" x2="54.75" y2="34.012" gradientUnits="userSpaceOnUse">
<stop stop-color="#1F5CD7"/>
<stop offset="1" stop-color="#02AEFF"/>
</linearGradient>
<clipPath id="clip0">
<rect width="35" height="22" fill="white"/>
</clipPath>
<clipPath id="clip1">
<rect width="49" height="14" fill="white" transform="translate(41 4)"/>
</clipPath>
</defs>
</svg>
